<svg width="320" height="320" viewBox="0 0 320 320" fill="none" xmlns="http://www.w3.org/2000/svg">
<path d="M298.81 202.368H193.92V141.67H298.81V202.368ZM194.56 201.728H298.17V142.31H194.56V201.728Z" fill="#E0E0E0"/>
<path d="M277.171 174.035H207.968V176.064H277.171V174.035Z" fill="#F0F0F0"/>
<path d="M281.939 181.6H207.968V183.814H281.939V181.6Z" fill="#F0F0F0"/>
<path d="M281.939 189.254H207.968V191.469H281.939V189.254Z" fill="#F0F0F0"/>
<path d="M232.154 163.046H207.968V168.314H232.154V163.046Z" fill="#F0F0F0"/>
<path d="M298.49 141.99H194.259V151.654H298.49V141.99Z" fill="#E0E0E0"/>
<path d="M290.47 150.208C290.336 150.08 291.68 148.461 293.466 146.592C295.251 144.723 296.819 143.309 296.947 143.43C297.075 143.552 295.738 145.178 293.952 147.053C292.166 148.928 290.598 150.336 290.47 150.208Z" fill="white"/>
<path d="M296.96 150.208C296.832 150.336 295.27 148.928 293.478 147.053C291.686 145.178 290.349 143.558 290.483 143.43C290.618 143.302 292.173 144.71 293.965 146.592C295.757 148.474 297.082 150.08 296.96 150.208Z" fill="white"/>
<path d="M169.741 21.792H65.5104V81.856H169.741V21.792Z" fill="#E6E6E6"/>
<path d="M148.429 53.8432H79.2256V55.872H148.429V53.8432Z" fill="#F0F0F0"/>
<path d="M153.197 61.408H79.2256V63.6224H153.197V61.408Z" fill="#F0F0F0"/>
<path d="M153.197 69.0624H79.2256V71.2768H153.197V69.0624Z" fill="#F0F0F0"/>
<path d="M103.411 42.8544H79.2256V48.1216H103.411V42.8544Z" fill="#F0F0F0"/>
<path d="M169.741 21.792H65.5104V31.456H169.741V21.792Z" fill="#E0E0E0"/>
<path d="M161.369 29.9648C161.235 29.8432 162.579 28.2176 164.365 26.3488C166.15 24.48 167.718 23.0656 167.846 23.1936C167.974 23.3216 166.637 24.9408 164.851 26.8096C163.065 28.6784 161.497 30.08 161.369 29.9648Z" fill="white"/>
<path d="M167.846 29.9648C167.718 30.0928 166.157 28.6848 164.365 26.8096C162.573 24.9344 161.235 23.3216 161.37 23.1936C161.504 23.0656 163.059 24.4736 164.851 26.3488C166.643 28.224 167.981 29.8432 167.846 29.9648Z" fill="white"/>
<path d="M130.266 133.37H25.3951V72.6656H130.266V133.37ZM26.0351 132.73H129.626V73.3056H26.0351V132.73Z" fill="#E0E0E0"/>
<path d="M108.633 105.037H39.4303V107.066H108.633V105.037Z" fill="#F0F0F0"/>
<path d="M113.401 112.602H39.4303V114.816H113.401V112.602Z" fill="#F0F0F0"/>
<path d="M113.401 120.256H39.4303V122.47H113.401V120.256Z" fill="#F0F0F0"/>
<path d="M63.6159 94.048H39.4303V99.3152H63.6159V94.048Z" fill="#F0F0F0"/>
<path d="M129.945 72.9856H25.7151V82.6496H129.945V72.9856Z" fill="#E0E0E0"/>
<path d="M251.296 147.277H128.224V257.459H251.296V147.277Z" fill="#E6E6E6"/>
<path d="M134.413 112.57H38.0032V212.736H134.413V112.57Z" fill="#F0F0F0"/>
<path d="M134.413 112.57H38.0032V123.482H134.413V112.57Z" fill="#E0E0E0"/>
<path d="M45.9647 117.914C45.9471 118.309 45.8138 118.691 45.5812 119.012C45.3485 119.332 45.0269 119.578 44.6562 119.717C44.2854 119.856 43.8819 119.884 43.4957 119.796C43.1094 119.708 42.7575 119.509 42.4836 119.223C42.2096 118.937 42.0257 118.576 41.9547 118.187C41.8836 117.797 41.9286 117.395 42.0839 117.031C42.2393 116.666 42.4982 116.356 42.8286 116.137C43.1589 115.919 43.5462 115.802 43.9423 115.802C44.49 115.815 45.0102 116.045 45.3891 116.44C45.7681 116.836 45.975 117.366 45.9647 117.914Z" fill="white"/>
<path d="M54.1759 117.914C54.1596 118.311 54.0267 118.695 53.7938 119.018C53.5609 119.34 53.2383 119.587 52.8661 119.728C52.4938 119.869 52.0885 119.897 51.7004 119.809C51.3123 119.721 50.9587 119.521 50.6835 119.234C50.4083 118.946 50.2237 118.584 50.1526 118.193C50.0815 117.801 50.1272 117.397 50.2839 117.032C50.4405 116.666 50.7013 116.354 51.0337 116.135C51.3662 115.917 51.7556 115.801 52.1535 115.802C52.7012 115.815 53.2214 116.045 53.6003 116.44C53.9793 116.836 54.1862 117.366 54.1759 117.914Z" fill="white"/>
<path d="M62.3872 117.914C62.3709 118.311 62.238 118.695 62.0051 119.018C61.7722 119.34 61.4496 119.587 61.0774 119.728C60.7051 119.869 60.2998 119.897 59.9117 119.809C59.5236 119.721 59.17 119.521 58.8948 119.234C58.6196 118.946 58.435 118.584 58.3639 118.193C58.2929 117.801 58.3385 117.397 58.4952 117.032C58.6519 116.666 58.9126 116.354 59.2451 116.135C59.5775 115.917 59.9669 115.801 60.3648 115.802C60.9125 115.815 61.4327 116.045 61.8116 116.44C62.1906 116.836 62.3975 117.366 62.3872 117.914Z" fill="white"/>
<path d="M285.043 43.6992H161.971V166.362H285.043V43.6992Z" fill="#F0F0F0"/>
<path d="M285.043 43.6992H161.971V58.0672H285.043V43.6992Z" fill="#E0E0E0"/>
<path d="M172.454 50.7392C172.432 51.2615 172.256 51.7657 171.95 52.1892C171.643 52.6127 171.219 52.9368 170.73 53.1212C170.24 53.3057 169.708 53.3423 169.198 53.2267C168.688 53.1111 168.223 52.8483 167.862 52.4708C167.5 52.0934 167.257 51.618 167.163 51.1037C167.069 50.5894 167.128 50.0588 167.333 49.5779C167.538 49.0969 167.88 48.6867 168.316 48.3982C168.752 48.1097 169.263 47.9557 169.786 47.9552C170.508 47.972 171.195 48.2744 171.695 48.7961C172.195 49.3179 172.468 50.0166 172.454 50.7392Z" fill="white"/>
<path d="M182.483 48.8576C182.838 49.2429 183.071 49.7241 183.155 50.2412C183.238 50.7583 183.167 51.2885 182.951 51.7657C182.735 52.2429 182.384 52.646 181.94 52.9248C181.497 53.2036 180.981 53.3457 180.458 53.3335C179.934 53.3213 179.426 53.1552 178.996 52.8561C178.566 52.5569 178.233 52.1379 178.04 51.6511C177.846 51.1644 177.8 50.6315 177.908 50.1188C178.015 49.6061 178.271 49.1363 178.643 48.768C179.165 48.2716 179.862 48.0023 180.582 48.0191C181.301 48.0359 181.985 48.3375 182.483 48.8576Z" fill="white"/>
<path d="M194.074 50.7392C194.051 51.2615 193.875 51.7657 193.569 52.1892C193.262 52.6127 192.838 52.9368 192.349 53.1212C191.86 53.3057 191.327 53.3423 190.817 53.2267C190.307 53.1111 189.842 52.8483 189.481 52.4708C189.119 52.0934 188.876 51.618 188.782 51.1037C188.688 50.5894 188.747 50.0588 188.952 49.5779C189.157 49.0969 189.499 48.6867 189.935 48.3982C190.371 48.1097 190.882 47.9557 191.405 47.9552C192.127 47.972 192.814 48.2744 193.314 48.7961C193.814 49.3179 194.087 50.0166 194.074 50.7392Z" fill="white"/>
<path d="M258.458 290.003C258.458 290.093 214.016 290.17 159.213 290.17C104.41 290.17 59.9489 290.093 59.9489 290.003C59.9489 289.914 104.384 289.837 159.213 289.837C214.042 289.837 258.458 289.92 258.458 290.003Z" fill="#263238"/>
<path d="M215.155 211.654C205.267 204.749 203.027 191.93 203.418 180.403C203.482 178.483 203.27 176.448 204.186 174.765C205.101 173.082 207.238 171.923 208.96 172.73C210.387 173.402 211.008 175.066 211.808 176.442C212.875 178.274 214.44 179.768 216.32 180.749C217.542 181.389 219.059 181.773 220.269 181.107C221.933 180.192 222.125 177.907 222.112 175.987C222.112 172.416 222.091 168.849 222.048 165.286C221.933 163.373 222.127 161.454 222.624 159.603C223.219 157.786 224.544 156.102 226.355 155.59C228.166 155.078 230.426 156.134 230.835 158.003C230.906 158.795 230.925 159.59 230.893 160.384C230.944 161.184 231.315 162.061 232.064 162.304C232.813 162.547 233.594 161.99 234.17 161.427C236.141 159.507 237.485 157.005 238.733 154.534C239.981 152.064 241.203 149.523 242.995 147.418C244.787 145.312 247.264 143.642 250.035 143.482C252.806 143.322 255.693 145.024 256.384 147.712C257.075 150.4 255.507 153.146 253.824 155.328C251.284 158.568 248.29 161.424 244.934 163.808C244.279 164.166 243.757 164.724 243.443 165.402C243.027 166.682 244.237 167.962 245.498 168.365C246.925 168.838 248.474 168.691 249.978 168.87C251.482 169.05 253.082 169.702 253.651 171.11C254.432 173.069 252.794 175.117 251.187 176.461C247.962 179.149 244.299 181.264 240.358 182.714C238.95 183.226 237.472 183.68 236.333 184.666C235.194 185.651 234.515 187.373 235.2 188.723C235.885 190.074 237.645 190.502 239.123 190.227C240.602 189.952 241.914 189.158 243.322 188.627C245.952 187.635 249.344 187.814 251.002 190.086C251.515 190.869 251.84 191.76 251.951 192.69C252.062 193.619 251.956 194.562 251.642 195.443C251.001 197.198 250.015 198.806 248.742 200.173C244.551 205.181 239.104 208.986 232.96 211.2C226.861 213.312 221.21 213.888 215.149 211.667" fill="#FF3E16"/>
<path d="M253.568 145.062C253.568 145.062 253.51 145.126 253.382 145.242L252.813 145.747C252.314 146.195 251.578 146.848 250.65 147.712C248.019 150.155 245.575 152.793 243.341 155.603C241.914 157.376 240.435 159.386 238.861 161.568C237.286 163.75 235.661 166.106 234.048 168.608C232.329 171.247 230.754 173.977 229.331 176.787C228.589 178.253 227.936 179.782 227.264 181.344L225.28 186.112C222.665 192.118 220.387 198.265 218.458 204.525C216.903 209.647 215.832 214.903 215.258 220.224C214.885 223.815 214.825 227.432 215.078 231.034C215.181 232.314 215.277 233.293 215.366 233.958C215.405 234.278 215.43 234.534 215.456 234.72V234.982C215.428 234.899 215.409 234.813 215.398 234.726C215.366 234.541 215.328 234.291 215.277 233.971C215.162 233.331 215.04 232.32 214.925 231.04C214.616 227.432 214.637 223.803 214.989 220.198C215.528 214.854 216.576 209.574 218.118 204.429C220.032 198.151 222.303 191.989 224.922 185.971L226.957 181.222C227.629 179.667 228.288 178.125 229.037 176.653C230.469 173.834 232.057 171.097 233.792 168.454C235.43 165.894 237.082 163.578 238.637 161.414C240.192 159.251 241.696 157.229 243.117 155.462C245.374 152.659 247.85 150.04 250.522 147.629C251.469 146.778 252.224 146.138 252.736 145.709L253.331 145.229C253.404 145.165 253.484 145.11 253.568 145.062Z" fill="#263238"/>
<path d="M229.12 176.64C229.03 176.376 228.967 176.104 228.934 175.827C228.832 175.296 228.717 174.547 228.582 173.574C228.307 171.654 228.026 169.024 227.725 166.112C227.424 163.2 227.085 160.563 226.803 158.662C226.656 157.715 226.528 156.954 226.438 156.422C226.368 156.151 226.332 155.871 226.33 155.59C226.44 155.847 226.519 156.115 226.566 156.39C226.707 156.915 226.867 157.67 227.046 158.624C227.411 160.544 227.77 163.155 228.07 166.074C228.371 168.992 228.627 171.552 228.826 173.542C228.922 174.438 229.005 175.2 229.069 175.808C229.119 176.082 229.136 176.362 229.12 176.64Z" fill="#263238"/>
<path d="M253.747 172.045C253.436 172.113 253.119 172.151 252.8 172.16C252.16 172.218 251.251 172.294 250.125 172.422C247.872 172.666 244.774 173.114 241.376 173.754C237.978 174.394 234.925 175.117 232.73 175.674C231.635 175.955 230.752 176.211 230.17 176.384C229.859 176.495 229.537 176.572 229.21 176.614C229.505 176.466 229.814 176.344 230.131 176.25C230.733 176.038 231.603 175.744 232.691 175.43C234.874 174.79 237.926 174.029 241.338 173.376C244.227 172.823 247.143 172.418 250.074 172.16C251.206 172.064 252.122 172.026 252.762 172.013C253.09 171.99 253.421 172.001 253.747 172.045Z" fill="#263238"/>
<path d="M218.432 203.981C218.364 203.888 218.308 203.787 218.266 203.68L217.843 202.79C217.478 202.016 216.986 200.87 216.397 199.469C215.206 196.653 213.69 192.71 212.077 188.333C210.464 183.955 208.979 180.013 207.853 177.165C207.302 175.782 206.848 174.65 206.509 173.805L206.15 172.89C206.101 172.784 206.066 172.672 206.048 172.557C206.116 172.649 206.172 172.751 206.214 172.858L206.637 173.747C206.995 174.522 207.494 175.667 208.083 177.069C209.274 179.885 210.79 183.827 212.403 188.205C214.016 192.582 215.501 196.525 216.627 199.373C217.178 200.755 217.632 201.888 217.965 202.733C218.112 203.098 218.234 203.373 218.33 203.648C218.379 203.754 218.414 203.866 218.432 203.981Z" fill="#263238"/>
<path d="M251.123 193.44C251.021 193.499 250.911 193.544 250.797 193.574L249.85 193.894L246.349 195.027C243.392 195.987 239.309 197.357 234.829 198.867C230.349 200.378 226.246 201.722 223.27 202.618C221.786 203.072 220.576 203.418 219.738 203.648L218.771 203.898C218.659 203.933 218.543 203.957 218.426 203.968C218.528 203.909 218.638 203.864 218.752 203.834L219.699 203.514L223.2 202.381C226.157 201.421 230.24 200.051 234.72 198.541C239.2 197.03 243.296 195.686 246.272 194.79C247.763 194.336 248.966 193.99 249.811 193.76L250.778 193.51C250.89 193.475 251.006 193.451 251.123 193.44Z" fill="#263238"/>
<path d="M237.786 38.1952L234.49 39.3728L233.075 35.0656C230.477 27.1232 222.195 22.9056 214.586 25.5872C206.976 28.2688 202.925 36.9792 205.523 44.9216L206.938 49.2288L203.629 50.4128C202.367 50.9022 201.342 51.8589 200.768 53.0842C200.193 54.3095 200.113 55.7091 200.544 56.992L209.715 85.0176C209.906 85.6527 210.222 86.243 210.645 86.7535C211.068 87.2641 211.589 87.6843 212.178 87.9894C212.766 88.2945 213.41 88.4781 214.071 88.5294C214.732 88.5807 215.397 88.4986 216.026 88.288L250.182 76.0704C251.461 75.5819 252.5 74.6166 253.081 73.3777C253.662 72.1387 253.741 70.7226 253.299 69.4272L244.122 41.4016C243.926 40.7683 243.605 40.1808 243.178 39.6742C242.751 39.1676 242.226 38.7523 241.634 38.4531C241.043 38.1538 240.397 37.9768 239.736 37.9325C239.075 37.8882 238.412 37.9775 237.786 38.1952ZM211.75 42.6752C211.05 40.6101 211.176 38.3539 212.101 36.3794C213.027 34.4049 214.681 32.8653 216.717 32.0832C217.722 31.7393 218.786 31.6014 219.846 31.6777C220.905 31.754 221.939 32.043 222.884 32.5274C223.83 33.0118 224.668 33.6817 225.349 34.4972C226.03 35.3126 226.54 36.2569 226.848 37.2736L228.256 41.5808L213.158 46.9824L211.75 42.6752ZM230.95 67.5456L233.293 74.7008C233.336 74.8443 233.322 74.9988 233.254 75.1323C233.186 75.2658 233.069 75.3679 232.928 75.4176L229.645 76.5888C229.514 76.625 229.374 76.6093 229.255 76.5448C229.136 76.4804 229.046 76.3723 229.005 76.2432L226.643 69.12C225.341 69.049 224.092 68.582 223.062 67.7813C222.033 66.9807 221.272 65.8847 220.883 64.64C220.327 62.9945 220.428 61.1975 221.167 59.6252C221.905 58.0529 223.223 56.8272 224.845 56.2048C225.645 55.9312 226.493 55.8216 227.337 55.8826C228.181 55.9436 229.004 56.1738 229.757 56.5596C230.51 56.9454 231.178 57.4789 231.721 58.1282C232.263 58.7776 232.669 59.5295 232.915 60.3392C233.327 61.6035 233.361 62.9605 233.013 64.2439C232.665 65.5274 231.951 66.6814 230.957 67.5648L230.95 67.5456Z" fill="#FF3E16"/>
<path d="M234.342 39.296C234.342 39.3856 228.23 41.6832 220.627 44.416C213.024 47.1488 206.822 49.344 206.79 49.28C206.758 49.216 212.902 46.8992 220.512 44.16C228.122 41.4208 234.31 39.2128 234.342 39.296Z" fill="#263238"/>
<path d="M241.6 40.4736C241.628 40.5291 241.652 40.5869 241.67 40.6464C241.722 40.7744 241.779 40.9408 241.856 41.1456C242.022 41.6128 242.253 42.2592 242.541 43.0656L244.998 50.2208C246.022 53.2544 247.245 56.8512 248.602 60.8448C249.242 62.848 249.997 64.9344 250.701 67.1296C251.078 68.2608 251.24 69.4524 251.181 70.6432C251.127 71.2625 250.95 71.865 250.662 72.416C250.355 72.9652 249.944 73.4498 249.453 73.8432C248.464 74.565 247.367 75.1245 246.202 75.5008L242.906 76.6848L236.666 78.9184L226.099 82.6816L218.963 85.1904L217.043 85.8304L216.531 85.9968C216.476 86.0211 216.418 86.0363 216.358 86.0416C216.358 86.0416 216.41 86.0416 216.518 85.9648L217.018 85.7664L218.938 85.0432L226.035 82.432L236.582 78.592L242.81 76.3392L246.106 75.1488C247.237 74.7878 248.303 74.2453 249.261 73.5424C249.718 73.1773 250.1 72.7275 250.387 72.2176C250.658 71.708 250.822 71.1482 250.867 70.5728C250.926 69.4254 250.77 68.2771 250.406 67.1872C249.715 65.0112 248.986 62.9056 248.326 60.9024C246.995 56.9024 245.766 53.2928 244.794 50.2592C243.821 47.2256 243.002 44.7872 242.438 43.072C242.17 42.2336 241.965 41.5808 241.798 41.1072L241.645 40.5952C241.625 40.5564 241.61 40.5156 241.6 40.4736Z" fill="#263238"/>
<path d="M223.578 31.648C223.578 31.648 223.238 31.4816 222.611 31.2256C221.717 30.8821 220.772 30.6917 219.814 30.6624C218.395 30.6137 216.983 30.8804 215.68 31.4432C214.095 32.144 212.74 33.2775 211.77 34.7136C210.793 36.1456 210.269 37.8379 210.266 39.5712C210.279 40.9918 210.494 42.4033 210.906 43.7632C211.238 44.928 211.584 45.856 211.814 46.5024C211.95 46.8307 212.062 47.1687 212.147 47.5136C211.965 47.2066 211.813 46.883 211.693 46.5472C211.43 45.9072 211.053 44.9984 210.682 43.8272C210.226 42.453 209.978 41.0186 209.946 39.5712C209.929 37.7724 210.465 36.0119 211.482 34.528C212.485 33.0394 213.896 31.8709 215.546 31.1616C216.89 30.5957 218.346 30.3461 219.802 30.432C220.78 30.4818 221.74 30.7096 222.637 31.104C222.876 31.2146 223.107 31.3429 223.328 31.488C223.419 31.528 223.503 31.582 223.578 31.648Z" fill="#263238"/>
<path d="M223.872 56.6912C223.974 56.6293 224.081 56.5758 224.192 56.5312C224.512 56.3866 224.844 56.2689 225.184 56.1792C225.723 56.02 226.28 55.9255 226.842 55.8976C227.606 55.8565 228.37 55.972 229.088 56.2368C230.726 56.8128 232.23 58.4832 232.973 60.7168C233.329 61.9155 233.329 63.1917 232.973 64.3904C232.578 65.6914 231.87 66.8758 230.912 67.84L230.95 67.6672C231.802 70.0032 232.73 72.5376 233.69 75.1808L233.747 75.3408L233.587 75.3984L232.122 75.8848L228.922 76.9536L228.762 77.0048L228.71 76.8448C227.834 74.1952 226.874 71.7248 226.15 69.2992L226.291 69.408C225.04 69.3041 223.847 68.8345 222.861 68.0576C221.968 67.3703 221.237 66.4967 220.717 65.4976C220.248 64.6116 220.014 63.6199 220.038 62.6176C220.068 61.5932 220.324 60.5881 220.787 59.6742C221.251 58.7603 221.911 57.9602 222.72 57.3312C223.053 57.0609 223.427 56.8449 223.827 56.6912C223.466 56.9057 223.115 57.1385 222.778 57.3888C221.889 58.1407 221.208 59.1081 220.8 60.1984C220.45 61.0206 220.286 61.9101 220.32 62.803C220.355 63.696 220.586 64.5703 220.998 65.3632C221.51 66.3243 222.224 67.1629 223.091 67.8208C224.032 68.5592 225.169 69.0044 226.362 69.1008H226.47L226.502 69.1968C227.206 71.5776 228.173 74.0672 229.062 76.7296L228.851 76.6272L232.051 75.5584L233.51 75.0656L233.408 75.2832C232.454 72.64 231.533 70.0992 230.688 67.7632V67.6672L230.765 67.5904C231.695 66.6662 232.389 65.5311 232.787 64.2816C233.127 63.135 233.127 61.9146 232.787 60.768C232.09 58.6176 230.65 56.9856 229.088 56.4096C228.397 56.1431 227.659 56.019 226.918 56.0448C226.366 56.0575 225.816 56.1326 225.28 56.2688C224.326 56.5056 223.878 56.7232 223.872 56.6912Z" fill="#263238"/>
<path d="M204.09 241.485L140.16 241.19C136.468 241.17 132.935 239.685 130.337 237.062C127.739 234.439 126.289 230.892 126.304 227.2L126.982 66.9376C126.99 65.1085 127.358 63.2988 128.065 61.612C128.773 59.9252 129.805 58.3944 131.105 57.107C132.404 55.8195 133.944 54.8008 135.637 54.109C137.331 53.4172 139.144 53.0659 140.973 53.0752L204.896 53.3696C208.588 53.3882 212.121 54.8714 214.721 57.4934C217.32 60.1153 218.772 63.6617 218.758 67.3536L218.08 227.61C218.072 229.439 217.705 231.25 216.997 232.937C216.29 234.625 215.258 236.156 213.958 237.445C212.659 238.733 211.119 239.753 209.426 240.446C207.733 241.139 205.919 241.492 204.09 241.485Z" fill="#455A64"/>
<path d="M204.8 58.88H192.41C192.005 58.8875 191.606 58.9746 191.236 59.1362C190.865 59.2979 190.53 59.531 190.249 59.8222C189.969 60.1134 189.749 60.4571 189.601 60.8335C189.453 61.2099 189.381 61.6117 189.389 62.016V64.2624C189.396 64.6664 189.324 65.0679 189.176 65.4439C189.029 65.82 188.808 66.1632 188.528 66.4539C188.247 66.7446 187.912 66.9771 187.541 67.1381C187.171 67.299 186.772 67.3853 186.368 67.392L162.214 67.2832C161.397 67.2614 160.622 66.9162 160.059 66.3234C159.497 65.7307 159.192 64.9387 159.213 64.1216V61.8752C159.233 61.0592 158.93 60.2682 158.368 59.6756C157.807 59.083 157.033 58.737 156.218 58.7136H151.859L141.011 58.6624C138.431 58.647 135.95 59.6547 134.111 61.4648C132.272 63.2749 131.225 65.7399 131.2 68.32L130.56 224.749C130.554 226.029 130.8 227.297 131.285 228.482C131.769 229.667 132.482 230.745 133.383 231.654C134.284 232.564 135.355 233.286 136.536 233.782C137.716 234.277 138.982 234.535 140.262 234.541L204.058 234.835C205.338 234.841 206.608 234.595 207.793 234.11C208.979 233.625 210.058 232.912 210.968 232.01C211.877 231.109 212.601 230.037 213.096 228.856C213.592 227.674 213.85 226.407 213.856 225.126L214.496 68.6976C214.511 66.1102 213.499 63.6226 211.68 61.7816C209.862 59.9406 207.387 58.8969 204.8 58.88Z" fill="white"/>
<path d="M208.526 208L135.362 207.74C134.602 207.74 133.99 207.059 134 206.232L134.079 190.508C134.079 189.697 134.701 189 135.461 189L208.624 189.276C209.045 189.336 209.422 189.527 209.676 189.809C209.93 190.092 210.041 190.444 209.986 190.792L209.917 206.5C209.917 207.335 209.286 208.008 208.526 208Z" fill="#FF3E16"/>
<path d="M149.528 200V195.636H152.145V196.105H150.057V197.58H151.949V198.048H150.057V200H149.528ZM154.071 200.068C153.776 200.068 153.516 199.998 153.293 199.857C153.072 199.717 152.898 199.52 152.773 199.267C152.65 199.014 152.588 198.719 152.588 198.381C152.588 198.04 152.65 197.742 152.773 197.488C152.898 197.234 153.072 197.036 153.293 196.896C153.516 196.755 153.776 196.685 154.071 196.685C154.366 196.685 154.625 196.755 154.847 196.896C155.07 197.036 155.243 197.234 155.366 197.488C155.491 197.742 155.554 198.04 155.554 198.381C155.554 198.719 155.491 199.014 155.366 199.267C155.243 199.52 155.07 199.717 154.847 199.857C154.625 199.998 154.366 200.068 154.071 200.068ZM154.071 199.616C154.295 199.616 154.48 199.559 154.625 199.444C154.77 199.329 154.877 199.178 154.947 198.99C155.016 198.803 155.051 198.599 155.051 198.381C155.051 198.162 155.016 197.958 154.947 197.769C154.877 197.58 154.77 197.428 154.625 197.311C154.48 197.195 154.295 197.136 154.071 197.136C153.847 197.136 153.662 197.195 153.517 197.311C153.372 197.428 153.265 197.58 153.195 197.769C153.126 197.958 153.091 198.162 153.091 198.381C153.091 198.599 153.126 198.803 153.195 198.99C153.265 199.178 153.372 199.329 153.517 199.444C153.662 199.559 153.847 199.616 154.071 199.616ZM156.322 200V196.727H156.807V197.222H156.841C156.901 197.06 157.009 196.928 157.165 196.827C157.322 196.727 157.498 196.676 157.694 196.676C157.731 196.676 157.777 196.677 157.832 196.678C157.888 196.68 157.93 196.682 157.958 196.685V197.196C157.941 197.192 157.902 197.185 157.841 197.177C157.781 197.167 157.718 197.162 157.651 197.162C157.492 197.162 157.35 197.195 157.225 197.262C157.101 197.327 157.003 197.418 156.931 197.535C156.86 197.65 156.824 197.781 156.824 197.929V200H156.322ZM159.775 201.295C159.532 201.295 159.324 201.264 159.149 201.202C158.974 201.141 158.829 201.06 158.712 200.959C158.597 200.859 158.506 200.753 158.437 200.639L158.838 200.358C158.883 200.418 158.941 200.486 159.01 200.562C159.08 200.641 159.175 200.708 159.296 200.765C159.418 200.823 159.578 200.852 159.775 200.852C160.04 200.852 160.258 200.788 160.43 200.661C160.601 200.533 160.687 200.332 160.687 200.06V199.395H160.645C160.608 199.455 160.555 199.528 160.487 199.616C160.42 199.703 160.324 199.781 160.197 199.849C160.072 199.915 159.903 199.949 159.69 199.949C159.426 199.949 159.189 199.886 158.979 199.761C158.77 199.636 158.604 199.455 158.482 199.216C158.361 198.977 158.301 198.687 158.301 198.347C158.301 198.011 158.36 197.719 158.478 197.471C158.596 197.221 158.76 197.028 158.97 196.891C159.18 196.754 159.423 196.685 159.699 196.685C159.912 196.685 160.081 196.72 160.206 196.791C160.332 196.861 160.429 196.94 160.496 197.03C160.564 197.118 160.616 197.19 160.653 197.247H160.704V196.727H161.19V200.094C161.19 200.375 161.126 200.604 160.998 200.78C160.872 200.957 160.702 201.087 160.487 201.17C160.274 201.254 160.037 201.295 159.775 201.295ZM159.758 199.497C159.96 199.497 160.131 199.451 160.27 199.359C160.409 199.266 160.515 199.134 160.587 198.96C160.66 198.787 160.696 198.58 160.696 198.338C160.696 198.102 160.66 197.894 160.589 197.714C160.518 197.533 160.413 197.392 160.274 197.29C160.135 197.187 159.963 197.136 159.758 197.136C159.545 197.136 159.368 197.19 159.226 197.298C159.085 197.406 158.979 197.551 158.908 197.733C158.839 197.915 158.804 198.116 158.804 198.338C158.804 198.565 158.839 198.766 158.91 198.941C158.983 199.114 159.089 199.251 159.23 199.35C159.372 199.448 159.548 199.497 159.758 199.497ZM163.483 200.068C163.167 200.068 162.895 199.999 162.667 199.859C162.439 199.719 162.264 199.523 162.14 199.271C162.018 199.018 161.957 198.724 161.957 198.389C161.957 198.054 162.018 197.759 162.14 197.503C162.264 197.246 162.436 197.045 162.656 196.902C162.878 196.757 163.136 196.685 163.432 196.685C163.602 196.685 163.77 196.713 163.937 196.77C164.103 196.827 164.254 196.919 164.39 197.047C164.527 197.173 164.635 197.341 164.716 197.55C164.797 197.759 164.838 198.016 164.838 198.321V198.534H162.315V198.099H164.327C164.327 197.915 164.29 197.75 164.216 197.605C164.143 197.46 164.04 197.346 163.905 197.262C163.771 197.178 163.613 197.136 163.432 197.136C163.231 197.136 163.058 197.186 162.912 197.286C162.767 197.384 162.655 197.511 162.577 197.669C162.499 197.827 162.46 197.996 162.46 198.176V198.466C162.46 198.713 162.503 198.923 162.588 199.094C162.675 199.265 162.795 199.395 162.948 199.484C163.101 199.572 163.28 199.616 163.483 199.616C163.615 199.616 163.734 199.598 163.841 199.561C163.949 199.523 164.042 199.466 164.12 199.391C164.198 199.314 164.258 199.219 164.301 199.105L164.787 199.241C164.736 199.406 164.65 199.551 164.529 199.676C164.408 199.8 164.259 199.896 164.081 199.966C163.904 200.034 163.704 200.068 163.483 200.068ZM167.026 196.727V197.153H165.33V196.727H167.026ZM165.824 195.943H166.327V199.062C166.327 199.205 166.348 199.311 166.389 199.382C166.432 199.452 166.486 199.499 166.551 199.523C166.618 199.545 166.688 199.557 166.762 199.557C166.817 199.557 166.863 199.554 166.898 199.548C166.934 199.541 166.962 199.536 166.983 199.531L167.086 199.983C167.052 199.996 167.004 200.009 166.943 200.021C166.882 200.036 166.805 200.043 166.711 200.043C166.569 200.043 166.43 200.012 166.293 199.951C166.158 199.89 166.046 199.797 165.956 199.672C165.868 199.547 165.824 199.389 165.824 199.199V195.943ZM169.47 201.227V196.727H169.956V197.247H170.015C170.052 197.19 170.104 197.118 170.169 197.03C170.236 196.94 170.331 196.861 170.454 196.791C170.579 196.72 170.748 196.685 170.961 196.685C171.237 196.685 171.48 196.754 171.69 196.891C171.9 197.029 172.064 197.224 172.182 197.477C172.3 197.73 172.359 198.028 172.359 198.372C172.359 198.719 172.3 199.019 172.182 199.273C172.064 199.526 171.901 199.722 171.692 199.862C171.483 199.999 171.243 200.068 170.97 200.068C170.76 200.068 170.591 200.033 170.465 199.964C170.339 199.893 170.241 199.812 170.173 199.723C170.105 199.632 170.052 199.557 170.015 199.497H169.973V201.227H169.47ZM169.964 198.364C169.964 198.611 170.001 198.829 170.073 199.018C170.145 199.205 170.251 199.352 170.39 199.459C170.53 199.564 170.7 199.616 170.902 199.616C171.112 199.616 171.287 199.561 171.428 199.45C171.57 199.338 171.677 199.187 171.748 198.999C171.82 198.808 171.856 198.597 171.856 198.364C171.856 198.134 171.821 197.926 171.75 197.741C171.68 197.555 171.574 197.408 171.432 197.3C171.292 197.191 171.115 197.136 170.902 197.136C170.697 197.136 170.525 197.188 170.386 197.292C170.247 197.394 170.142 197.538 170.071 197.722C170 197.906 169.964 198.119 169.964 198.364ZM174.089 200.077C173.882 200.077 173.694 200.038 173.525 199.96C173.356 199.88 173.221 199.766 173.122 199.616C173.023 199.466 172.973 199.284 172.973 199.071C172.973 198.884 173.01 198.732 173.084 198.615C173.157 198.497 173.256 198.405 173.38 198.338C173.503 198.271 173.64 198.222 173.789 198.189C173.939 198.155 174.091 198.128 174.243 198.108C174.442 198.082 174.603 198.063 174.726 198.05C174.851 198.036 174.942 198.013 174.999 197.98C175.057 197.947 175.086 197.891 175.086 197.81V197.793C175.086 197.582 175.029 197.419 174.914 197.303C174.8 197.186 174.628 197.128 174.396 197.128C174.156 197.128 173.968 197.18 173.831 197.286C173.695 197.391 173.599 197.503 173.544 197.622L173.067 197.452C173.152 197.253 173.265 197.098 173.407 196.987C173.551 196.875 173.707 196.797 173.876 196.753C174.047 196.707 174.214 196.685 174.379 196.685C174.484 196.685 174.605 196.697 174.741 196.723C174.879 196.747 175.012 196.798 175.14 196.874C175.269 196.951 175.376 197.067 175.461 197.222C175.547 197.376 175.589 197.584 175.589 197.844V200H175.086V199.557H175.061C175.027 199.628 174.97 199.704 174.89 199.785C174.811 199.866 174.705 199.935 174.573 199.991C174.441 200.048 174.28 200.077 174.089 200.077ZM174.166 199.625C174.365 199.625 174.532 199.586 174.669 199.508C174.807 199.43 174.91 199.329 174.98 199.205C175.051 199.082 175.086 198.952 175.086 198.815V198.355C175.065 198.381 175.018 198.404 174.946 198.425C174.875 198.445 174.792 198.463 174.699 198.479C174.606 198.493 174.516 198.506 174.428 198.517C174.341 198.527 174.271 198.536 174.217 198.543C174.086 198.56 173.964 198.587 173.851 198.626C173.738 198.663 173.648 198.719 173.578 198.794C173.51 198.868 173.476 198.969 173.476 199.097C173.476 199.271 173.54 199.403 173.67 199.493C173.8 199.581 173.966 199.625 174.166 199.625ZM178.825 197.46L178.374 197.588C178.345 197.513 178.303 197.44 178.248 197.369C178.194 197.296 178.12 197.237 178.026 197.19C177.933 197.143 177.812 197.119 177.666 197.119C177.466 197.119 177.299 197.165 177.165 197.258C177.033 197.349 176.967 197.464 176.967 197.605C176.967 197.73 177.013 197.829 177.104 197.901C177.195 197.974 177.337 198.034 177.53 198.082L178.016 198.202C178.308 198.273 178.526 198.381 178.67 198.528C178.813 198.673 178.885 198.859 178.885 199.088C178.885 199.276 178.831 199.443 178.723 199.591C178.616 199.739 178.467 199.855 178.276 199.94C178.084 200.026 177.861 200.068 177.607 200.068C177.273 200.068 176.996 199.996 176.778 199.851C176.559 199.706 176.42 199.494 176.362 199.216L176.839 199.097C176.885 199.273 176.971 199.405 177.097 199.493C177.225 199.581 177.392 199.625 177.598 199.625C177.832 199.625 178.018 199.575 178.156 199.476C178.295 199.375 178.365 199.254 178.365 199.114C178.365 199 178.325 198.905 178.246 198.828C178.166 198.75 178.044 198.692 177.879 198.653L177.334 198.526C177.034 198.455 176.814 198.344 176.673 198.195C176.534 198.045 176.464 197.857 176.464 197.631C176.464 197.446 176.516 197.283 176.62 197.141C176.725 196.999 176.868 196.887 177.048 196.806C177.23 196.725 177.436 196.685 177.666 196.685C177.99 196.685 178.244 196.756 178.429 196.898C178.615 197.04 178.747 197.227 178.825 197.46ZM181.96 197.46L181.508 197.588C181.48 197.513 181.438 197.44 181.383 197.369C181.329 197.296 181.255 197.237 181.161 197.19C181.067 197.143 180.947 197.119 180.801 197.119C180.601 197.119 180.434 197.165 180.3 197.258C180.168 197.349 180.102 197.464 180.102 197.605C180.102 197.73 180.148 197.829 180.238 197.901C180.329 197.974 180.471 198.034 180.665 198.082L181.15 198.202C181.443 198.273 181.661 198.381 181.805 198.528C181.948 198.673 182.02 198.859 182.02 199.088C182.02 199.276 181.966 199.443 181.858 199.591C181.751 199.739 181.602 199.855 181.41 199.94C181.219 200.026 180.996 200.068 180.741 200.068C180.407 200.068 180.131 199.996 179.912 199.851C179.694 199.706 179.555 199.494 179.497 199.216L179.974 199.097C180.02 199.273 180.106 199.405 180.232 199.493C180.36 199.581 180.527 199.625 180.733 199.625C180.967 199.625 181.153 199.575 181.291 199.476C181.43 199.375 181.5 199.254 181.5 199.114C181.5 199 181.46 198.905 181.381 198.828C181.301 198.75 181.179 198.692 181.014 198.653L180.469 198.526C180.169 198.455 179.949 198.344 179.808 198.195C179.669 198.045 179.599 197.857 179.599 197.631C179.599 197.446 179.651 197.283 179.755 197.141C179.86 196.999 180.003 196.887 180.183 196.806C180.365 196.725 180.571 196.685 180.801 196.685C181.125 196.685 181.379 196.756 181.564 196.898C181.75 197.04 181.882 197.227 181.96 197.46ZM183.518 200L182.521 196.727H183.049L183.757 199.233H183.791L184.49 196.727H185.027L185.717 199.224H185.751L186.458 196.727H186.987L185.99 200H185.495L184.779 197.486H184.728L184.012 200H183.518ZM188.87 200.068C188.574 200.068 188.315 199.998 188.092 199.857C187.871 199.717 187.697 199.52 187.572 199.267C187.449 199.014 187.387 198.719 187.387 198.381C187.387 198.04 187.449 197.742 187.572 197.488C187.697 197.234 187.871 197.036 188.092 196.896C188.315 196.755 188.574 196.685 188.87 196.685C189.165 196.685 189.424 196.755 189.645 196.896C189.868 197.036 190.042 197.234 190.165 197.488C190.29 197.742 190.353 198.04 190.353 198.381C190.353 198.719 190.29 199.014 190.165 199.267C190.042 199.52 189.868 199.717 189.645 199.857C189.424 199.998 189.165 200.068 188.87 200.068ZM188.87 199.616C189.094 199.616 189.279 199.559 189.424 199.444C189.569 199.329 189.676 199.178 189.746 198.99C189.815 198.803 189.85 198.599 189.85 198.381C189.85 198.162 189.815 197.958 189.746 197.769C189.676 197.58 189.569 197.428 189.424 197.311C189.279 197.195 189.094 197.136 188.87 197.136C188.645 197.136 188.461 197.195 188.316 197.311C188.171 197.428 188.064 197.58 187.994 197.769C187.925 197.958 187.89 198.162 187.89 198.381C187.89 198.599 187.925 198.803 187.994 198.99C188.064 199.178 188.171 199.329 188.316 199.444C188.461 199.559 188.645 199.616 188.87 199.616ZM191.12 200V196.727H191.606V197.222H191.64C191.7 197.06 191.808 196.928 191.964 196.827C192.12 196.727 192.297 196.676 192.493 196.676C192.529 196.676 192.576 196.677 192.631 196.678C192.686 196.68 192.728 196.682 192.757 196.685V197.196C192.74 197.192 192.701 197.185 192.64 197.177C192.58 197.167 192.517 197.162 192.45 197.162C192.291 197.162 192.149 197.195 192.024 197.262C191.9 197.327 191.802 197.418 191.73 197.535C191.659 197.65 191.623 197.781 191.623 197.929V200H191.12ZM194.489 200.068C194.216 200.068 193.975 199.999 193.767 199.862C193.558 199.722 193.395 199.526 193.277 199.273C193.159 199.019 193.1 198.719 193.1 198.372C193.1 198.028 193.159 197.73 193.277 197.477C193.395 197.224 193.559 197.029 193.769 196.891C193.979 196.754 194.222 196.685 194.498 196.685C194.711 196.685 194.879 196.72 195.002 196.791C195.127 196.861 195.223 196.94 195.288 197.03C195.355 197.118 195.407 197.19 195.444 197.247H195.486V195.636H195.989V200H195.503V199.497H195.444C195.407 199.557 195.354 199.632 195.286 199.723C195.218 199.812 195.12 199.893 194.994 199.964C194.868 200.033 194.699 200.068 194.489 200.068ZM194.557 199.616C194.759 199.616 194.929 199.564 195.069 199.459C195.208 199.352 195.314 199.205 195.386 199.018C195.458 198.829 195.495 198.611 195.495 198.364C195.495 198.119 195.459 197.906 195.388 197.722C195.317 197.538 195.212 197.394 195.073 197.292C194.934 197.188 194.762 197.136 194.557 197.136C194.344 197.136 194.167 197.191 194.025 197.3C193.884 197.408 193.778 197.555 193.707 197.741C193.637 197.926 193.603 198.134 193.603 198.364C193.603 198.597 193.638 198.808 193.709 198.999C193.782 199.187 193.888 199.338 194.029 199.45C194.171 199.561 194.347 199.616 194.557 199.616Z" fill="#E8E8E3"/>
<path d="M158.243 104.864L141.782 104.789L141.768 107.81L158.229 107.885L158.243 104.864Z" fill="#FF3E16"/>
<path opacity="0.1" d="M158.243 104.864L141.782 104.789L141.768 107.81L158.229 107.885L158.243 104.864Z" fill="black"/>
<path d="M206.496 123.411C206.625 123.398 206.752 123.368 206.874 123.322C207.051 123.252 207.205 123.135 207.318 122.982C207.431 122.829 207.499 122.647 207.514 122.458C207.514 121.44 207.514 119.955 207.514 118.048C207.514 117.094 207.514 116.026 207.514 114.848C207.514 114.56 207.514 114.259 207.514 113.958C207.555 113.667 207.492 113.369 207.334 113.12C207.246 113 207.132 112.903 207 112.835C206.867 112.767 206.721 112.731 206.573 112.73H205.574H196.326L142.797 112.531C142.66 112.529 142.524 112.56 142.402 112.621C142.279 112.682 142.173 112.772 142.093 112.883C141.938 113.134 141.879 113.431 141.926 113.722C141.926 114.362 141.926 115.002 141.926 115.642C141.926 116.922 141.926 118.202 141.926 119.482C141.926 120.122 141.926 120.762 141.926 121.402C141.9 121.7 141.9 122 141.926 122.298C141.96 122.425 142.023 122.544 142.109 122.644C142.196 122.743 142.304 122.822 142.426 122.874C142.552 122.924 142.687 122.948 142.822 122.944H146.08L160.294 123.021L184.358 123.168L200.582 123.296L204.992 123.347H206.138C206.4 123.347 206.528 123.347 206.528 123.347H206.138H204.992H200.582H184.358L160.294 123.27L146.08 123.213H142.822C142.643 123.22 142.464 123.19 142.298 123.123C142.129 123.051 141.979 122.942 141.859 122.803C141.74 122.665 141.653 122.5 141.606 122.323C141.569 122.155 141.556 121.983 141.568 121.811V121.338C141.568 120.698 141.568 120.058 141.568 119.418C141.568 118.138 141.568 116.858 141.568 115.578C141.568 114.938 141.568 114.298 141.568 113.658C141.556 113.487 141.556 113.316 141.568 113.146C141.592 112.957 141.665 112.779 141.779 112.627C141.89 112.473 142.036 112.347 142.205 112.261C142.374 112.176 142.562 112.132 142.752 112.134L196.282 112.429L205.53 112.493H206.528C206.704 112.493 206.877 112.535 207.033 112.617C207.189 112.698 207.323 112.816 207.424 112.96C207.604 113.238 207.677 113.573 207.629 113.901C207.629 114.202 207.629 114.502 207.629 114.79C207.629 115.955 207.629 117.024 207.629 117.99C207.629 119.91 207.584 121.382 207.571 122.406C207.556 122.603 207.484 122.792 207.365 122.949C207.246 123.107 207.084 123.227 206.899 123.296C206.778 123.371 206.638 123.411 206.496 123.411Z" fill="#E0E0E0"/>
<path d="M176.832 115.744H146.726V118.566H176.832V115.744Z" fill="#FF3E16"/>
<path opacity="0.2" d="M176.832 115.744H146.726V118.566H176.832V115.744Z" fill="white"/>
<path d="M158.13 132.422L141.67 132.347L141.656 135.368L158.117 135.442L158.13 132.422Z" fill="#FF3E16"/>
<path opacity="0.1" d="M158.13 132.422L141.67 132.347L141.656 135.368L158.117 135.442L158.13 132.422Z" fill="black"/>
<path d="M206.08 150.97C206.209 150.954 206.337 150.93 206.464 150.899C206.643 150.842 206.807 150.748 206.946 150.622C207.085 150.496 207.196 150.342 207.27 150.17C207.371 149.911 207.411 149.633 207.386 149.357C207.386 149.05 207.386 148.717 207.386 148.346C207.386 147.603 207.386 146.758 207.386 145.786V141.722C207.416 141.427 207.351 141.131 207.2 140.877C207.042 140.616 206.794 140.422 206.502 140.333C206.184 140.276 205.859 140.259 205.536 140.282H196.326L142.982 140.083C142.695 140.084 142.418 140.189 142.203 140.378C141.988 140.568 141.848 140.829 141.811 141.114C141.811 141.722 141.811 142.394 141.811 143.034C141.811 144.314 141.811 145.594 141.811 146.874C141.811 147.514 141.811 148.154 141.811 148.794C141.787 149.093 141.8 149.394 141.85 149.69C141.929 149.949 142.094 150.174 142.317 150.33C142.553 150.48 142.831 150.551 143.11 150.534H144H145.85L160.013 150.605L183.994 150.752L200.16 150.88L204.557 150.931H205.702H206.086H205.702H204.557H200.16H183.994L160 150.906L145.837 150.854H143.053C142.707 150.875 142.363 150.783 142.074 150.592C141.782 150.39 141.57 150.094 141.472 149.754C141.415 149.428 141.397 149.097 141.421 148.768C141.421 148.128 141.421 147.488 141.421 146.848C141.421 145.568 141.421 144.288 141.421 143.008C141.421 142.368 141.421 141.728 141.421 141.088C141.467 140.722 141.646 140.386 141.923 140.142C142.2 139.898 142.556 139.763 142.925 139.763L196.269 140.058L205.478 140.128C205.821 140.107 206.166 140.131 206.502 140.198C206.835 140.307 207.115 140.535 207.29 140.838C207.455 141.12 207.527 141.447 207.494 141.773C207.494 142.074 207.494 142.368 207.494 142.662C207.494 143.821 207.494 144.883 207.494 145.862C207.494 146.842 207.494 147.667 207.494 148.422C207.494 148.787 207.494 149.126 207.494 149.44C207.518 149.726 207.472 150.014 207.36 150.278C207.277 150.455 207.157 150.612 207.008 150.737C206.858 150.863 206.684 150.956 206.496 151.008C206.356 151.02 206.215 151.007 206.08 150.97Z" fill="#E0E0E0"/>
<path d="M158.006 161.176L141.546 161.101L141.532 164.122L157.993 164.197L158.006 161.176Z" fill="#FF3E16"/>
<path opacity="0.1" d="M158.006 161.176L141.546 161.101L141.532 164.122L157.993 164.197L158.006 161.176Z" fill="black"/>
<path d="M205.952 179.712C206.081 179.697 206.21 179.673 206.336 179.642C206.514 179.585 206.678 179.491 206.817 179.367C206.956 179.242 207.067 179.089 207.142 178.918C207.243 178.66 207.282 178.382 207.258 178.106C207.258 177.792 207.258 177.466 207.258 177.088C207.258 176.352 207.258 175.501 207.258 174.528V170.464C207.288 170.17 207.223 169.874 207.072 169.619C206.91 169.363 206.663 169.173 206.374 169.082C206.056 169.022 205.731 169.003 205.408 169.024H196.198L142.854 168.826C142.567 168.826 142.29 168.931 142.075 169.121C141.86 169.31 141.72 169.571 141.683 169.856C141.683 170.496 141.683 171.136 141.683 171.776C141.683 173.056 141.683 174.336 141.683 175.616C141.683 176.256 141.683 176.896 141.683 177.536C141.659 177.833 141.672 178.132 141.722 178.426C141.798 178.687 141.963 178.913 142.189 179.066C142.424 179.219 142.702 179.291 142.982 179.27H145.766L159.93 179.347L183.91 179.494L200.077 179.622L204.474 179.674H205.619C205.875 179.674 206.003 179.674 206.003 179.674C206.003 179.674 205.875 179.674 205.619 179.674H204.474H200.077H183.91L159.93 179.603L145.766 179.546H142.982C142.636 179.569 142.291 179.477 142.003 179.283C141.712 179.081 141.499 178.785 141.402 178.445C141.344 178.12 141.327 177.789 141.35 177.459C141.35 176.819 141.35 176.179 141.35 175.539C141.35 174.259 141.35 172.979 141.35 171.699C141.35 171.059 141.35 170.419 141.35 169.747C141.396 169.382 141.573 169.045 141.849 168.801C142.124 168.558 142.48 168.423 142.848 168.422L196.192 168.717L205.402 168.787C205.744 168.766 206.089 168.79 206.426 168.858C206.758 168.966 207.038 169.194 207.213 169.498C207.378 169.779 207.45 170.107 207.418 170.432C207.418 170.733 207.418 171.034 207.418 171.322C207.418 172.48 207.418 173.542 207.418 174.522C207.418 175.501 207.418 176.326 207.418 177.082C207.418 177.446 207.418 177.786 207.418 178.099C207.442 178.385 207.396 178.673 207.283 178.938C207.2 179.114 207.08 179.271 206.931 179.397C206.782 179.523 206.607 179.615 206.419 179.667C206.269 179.719 206.109 179.734 205.952 179.712Z" fill="#E0E0E0"/>
<path d="M176.189 144.1L146.084 143.964L146.071 146.786L176.176 146.923L176.189 144.1Z" fill="#FF3E16"/>
<path opacity="0.2" d="M176.189 144.1L146.084 143.964L146.071 146.786L176.176 146.923L176.189 144.1Z" fill="white"/>
<path d="M148.806 174.49C148.787 174.747 148.693 174.993 148.536 175.198C148.378 175.402 148.164 175.556 147.92 175.64C147.676 175.724 147.413 175.734 147.163 175.67C146.913 175.605 146.687 175.469 146.514 175.278C146.341 175.086 146.228 174.848 146.188 174.593C146.149 174.338 146.186 174.077 146.294 173.843C146.401 173.608 146.576 173.41 146.795 173.274C147.014 173.137 147.268 173.068 147.526 173.075C147.883 173.095 148.217 173.255 148.457 173.519C148.697 173.784 148.822 174.133 148.806 174.49Z" fill="#FF3E16"/>
<path d="M152.883 174.509C152.896 174.689 152.871 174.87 152.811 175.041C152.75 175.211 152.655 175.368 152.532 175.5C152.409 175.632 152.259 175.738 152.094 175.81C151.928 175.882 151.749 175.919 151.568 175.919C151.387 175.919 151.208 175.882 151.042 175.81C150.876 175.738 150.727 175.632 150.604 175.5C150.48 175.368 150.386 175.211 150.325 175.041C150.265 174.87 150.24 174.689 150.253 174.509C150.24 174.328 150.265 174.147 150.325 173.977C150.386 173.806 150.48 173.65 150.604 173.518C150.727 173.386 150.876 173.28 151.042 173.208C151.208 173.136 151.387 173.099 151.568 173.099C151.749 173.099 151.928 173.136 152.094 173.208C152.259 173.28 152.409 173.386 152.532 173.518C152.655 173.65 152.75 173.806 152.811 173.977C152.871 174.147 152.896 174.328 152.883 174.509Z" fill="#FF3E16"/>
<path d="M156.966 174.528C156.948 174.785 156.853 175.032 156.696 175.236C156.538 175.441 156.324 175.594 156.08 175.678C155.836 175.762 155.573 175.773 155.323 175.708C155.073 175.644 154.847 175.508 154.674 175.316C154.501 175.125 154.388 174.887 154.348 174.632C154.309 174.376 154.346 174.115 154.454 173.881C154.561 173.646 154.736 173.449 154.955 173.312C155.174 173.176 155.428 173.107 155.686 173.114C156.042 173.135 156.376 173.295 156.615 173.56C156.854 173.824 156.98 174.172 156.966 174.528Z" fill="#FF3E16"/>
<path d="M161.043 174.547C161.024 174.805 160.93 175.051 160.773 175.255C160.615 175.46 160.401 175.614 160.157 175.697C159.913 175.781 159.65 175.792 159.4 175.727C159.15 175.663 158.924 175.527 158.751 175.335C158.578 175.144 158.464 174.906 158.425 174.651C158.386 174.396 158.423 174.135 158.53 173.9C158.638 173.666 158.812 173.468 159.032 173.331C159.251 173.195 159.505 173.126 159.763 173.133C160.119 173.154 160.453 173.314 160.692 173.579C160.931 173.843 161.057 174.191 161.043 174.547Z" fill="#FF3E16"/>
<path d="M165.12 174.56C165.102 174.818 165.009 175.065 164.852 175.27C164.696 175.476 164.482 175.63 164.238 175.715C163.994 175.8 163.73 175.811 163.48 175.748C163.229 175.684 163.003 175.548 162.829 175.357C162.655 175.166 162.541 174.927 162.502 174.672C162.462 174.417 162.498 174.155 162.606 173.92C162.714 173.686 162.888 173.487 163.108 173.351C163.327 173.214 163.582 173.145 163.84 173.152C164.195 173.173 164.527 173.333 164.766 173.596C165.005 173.859 165.132 174.205 165.12 174.56Z" fill="#FF3E16"/>
<path d="M169.203 174.579C169.186 174.836 169.094 175.081 168.938 175.286C168.783 175.491 168.571 175.646 168.329 175.732C168.087 175.818 167.824 175.831 167.575 175.77C167.325 175.709 167.099 175.576 166.923 175.388C166.748 175.2 166.632 174.965 166.588 174.712C166.545 174.458 166.577 174.198 166.68 173.962C166.782 173.727 166.952 173.526 167.167 173.386C167.382 173.245 167.634 173.171 167.891 173.171C168.252 173.185 168.592 173.34 168.838 173.604C169.084 173.868 169.215 174.219 169.203 174.579Z" fill="#FF3E16"/>
<path d="M173.28 174.598C173.293 174.779 173.268 174.96 173.207 175.13C173.147 175.301 173.052 175.457 172.929 175.589C172.806 175.722 172.656 175.827 172.49 175.899C172.325 175.971 172.146 176.009 171.965 176.009C171.784 176.009 171.605 175.971 171.439 175.899C171.273 175.827 171.124 175.722 171.001 175.589C170.877 175.457 170.782 175.301 170.722 175.13C170.662 174.96 170.637 174.779 170.65 174.598C170.637 174.418 170.662 174.237 170.722 174.066C170.782 173.896 170.877 173.74 171.001 173.607C171.124 173.475 171.273 173.37 171.439 173.298C171.605 173.225 171.784 173.188 171.965 173.188C172.146 173.188 172.325 173.225 172.49 173.298C172.656 173.37 172.806 173.475 172.929 173.607C173.052 173.74 173.147 173.896 173.207 174.066C173.268 174.237 173.293 174.418 173.28 174.598Z" fill="#FF3E16"/>
<path d="M177.357 174.618C177.339 174.874 177.247 175.12 177.092 175.325C176.937 175.53 176.725 175.684 176.482 175.77C176.24 175.856 175.978 175.87 175.728 175.809C175.479 175.748 175.252 175.615 175.077 175.427C174.902 175.239 174.785 175.003 174.742 174.75C174.699 174.497 174.73 174.236 174.833 174.001C174.936 173.765 175.105 173.564 175.321 173.424C175.536 173.283 175.788 173.209 176.045 173.21C176.405 173.223 176.746 173.379 176.992 173.643C177.238 173.906 177.369 174.257 177.357 174.618Z" fill="#FF3E16"/>
<path d="M181.434 174.637C181.416 174.895 181.323 175.142 181.166 175.347C181.009 175.552 180.795 175.707 180.551 175.792C180.307 175.877 180.044 175.888 179.793 175.824C179.543 175.761 179.316 175.625 179.143 175.434C178.969 175.242 178.855 175.004 178.815 174.749C178.776 174.494 178.812 174.232 178.92 173.997C179.027 173.762 179.202 173.564 179.421 173.428C179.641 173.291 179.895 173.222 180.154 173.229C180.508 173.25 180.841 173.409 181.08 173.673C181.319 173.936 181.446 174.282 181.434 174.637Z" fill="#FF3E16"/>
<g opacity="0.2">
<path d="M148.806 174.49C148.787 174.747 148.693 174.993 148.536 175.198C148.378 175.402 148.164 175.556 147.92 175.64C147.676 175.724 147.413 175.734 147.163 175.67C146.913 175.605 146.687 175.469 146.514 175.278C146.341 175.086 146.228 174.848 146.188 174.593C146.149 174.338 146.186 174.077 146.294 173.843C146.401 173.608 146.576 173.41 146.795 173.274C147.014 173.137 147.268 173.068 147.526 173.075C147.883 173.095 148.217 173.255 148.457 173.519C148.697 173.784 148.822 174.133 148.806 174.49Z" fill="white"/>
<path d="M152.883 174.509C152.896 174.689 152.871 174.87 152.811 175.041C152.75 175.211 152.655 175.368 152.532 175.5C152.409 175.632 152.259 175.738 152.094 175.81C151.928 175.882 151.749 175.919 151.568 175.919C151.387 175.919 151.208 175.882 151.042 175.81C150.876 175.738 150.727 175.632 150.604 175.5C150.48 175.368 150.386 175.211 150.325 175.041C150.265 174.87 150.24 174.689 150.253 174.509C150.24 174.328 150.265 174.147 150.325 173.977C150.386 173.806 150.48 173.65 150.604 173.518C150.727 173.386 150.876 173.28 151.042 173.208C151.208 173.136 151.387 173.099 151.568 173.099C151.749 173.099 151.928 173.136 152.094 173.208C152.259 173.28 152.409 173.386 152.532 173.518C152.655 173.65 152.75 173.806 152.811 173.977C152.871 174.147 152.896 174.328 152.883 174.509Z" fill="white"/>
<path d="M156.966 174.528C156.948 174.785 156.853 175.032 156.696 175.236C156.538 175.441 156.324 175.594 156.08 175.678C155.836 175.762 155.573 175.773 155.323 175.708C155.073 175.644 154.847 175.508 154.674 175.316C154.501 175.125 154.388 174.887 154.348 174.632C154.309 174.376 154.346 174.115 154.454 173.881C154.561 173.646 154.736 173.449 154.955 173.312C155.174 173.176 155.428 173.107 155.686 173.114C156.042 173.135 156.376 173.295 156.615 173.56C156.854 173.824 156.98 174.172 156.966 174.528Z" fill="white"/>
<path d="M161.043 174.547C161.024 174.805 160.93 175.051 160.773 175.255C160.615 175.46 160.401 175.614 160.157 175.697C159.913 175.781 159.65 175.792 159.4 175.727C159.15 175.663 158.924 175.527 158.751 175.335C158.578 175.144 158.464 174.906 158.425 174.651C158.386 174.396 158.423 174.135 158.53 173.9C158.638 173.666 158.812 173.468 159.032 173.331C159.251 173.195 159.505 173.126 159.763 173.133C160.119 173.154 160.453 173.314 160.692 173.579C160.931 173.843 161.057 174.191 161.043 174.547Z" fill="white"/>
<path d="M165.12 174.56C165.102 174.818 165.009 175.065 164.852 175.27C164.696 175.476 164.482 175.63 164.238 175.715C163.994 175.8 163.73 175.811 163.48 175.748C163.229 175.684 163.003 175.548 162.829 175.357C162.655 175.166 162.541 174.927 162.502 174.672C162.462 174.417 162.498 174.155 162.606 173.92C162.714 173.686 162.888 173.487 163.108 173.351C163.327 173.214 163.582 173.145 163.84 173.152C164.195 173.173 164.527 173.333 164.766 173.596C165.005 173.859 165.132 174.205 165.12 174.56Z" fill="white"/>
<path d="M169.203 174.579C169.186 174.836 169.094 175.081 168.938 175.286C168.783 175.491 168.571 175.646 168.329 175.732C168.087 175.818 167.824 175.831 167.575 175.77C167.325 175.709 167.099 175.576 166.923 175.388C166.748 175.2 166.632 174.965 166.588 174.712C166.545 174.458 166.577 174.198 166.68 173.962C166.782 173.727 166.952 173.526 167.167 173.386C167.382 173.245 167.634 173.171 167.891 173.171C168.252 173.185 168.592 173.34 168.838 173.604C169.084 173.868 169.215 174.219 169.203 174.579Z" fill="white"/>
<path d="M173.28 174.598C173.293 174.779 173.268 174.96 173.207 175.13C173.147 175.301 173.052 175.457 172.929 175.589C172.806 175.722 172.656 175.827 172.49 175.899C172.325 175.971 172.146 176.009 171.965 176.009C171.784 176.009 171.605 175.971 171.439 175.899C171.273 175.827 171.124 175.722 171.001 175.589C170.877 175.457 170.782 175.301 170.722 175.13C170.662 174.96 170.637 174.779 170.65 174.598C170.637 174.418 170.662 174.237 170.722 174.066C170.782 173.896 170.877 173.74 171.001 173.607C171.124 173.475 171.273 173.37 171.439 173.298C171.605 173.225 171.784 173.188 171.965 173.188C172.146 173.188 172.325 173.225 172.49 173.298C172.656 173.37 172.806 173.475 172.929 173.607C173.052 173.74 173.147 173.896 173.207 174.066C173.268 174.237 173.293 174.418 173.28 174.598Z" fill="white"/>
<path d="M177.357 174.618C177.339 174.874 177.247 175.12 177.092 175.325C176.937 175.53 176.725 175.684 176.482 175.77C176.24 175.856 175.978 175.87 175.728 175.809C175.479 175.748 175.252 175.615 175.077 175.427C174.902 175.239 174.785 175.003 174.742 174.75C174.699 174.497 174.73 174.236 174.833 174.001C174.936 173.765 175.105 173.565 175.321 173.424C175.536 173.283 175.788 173.209 176.045 173.21C176.405 173.223 176.746 173.379 176.992 173.643C177.238 173.906 177.369 174.257 177.357 174.618Z" fill="white"/>
<path d="M181.434 174.637C181.416 174.895 181.323 175.142 181.166 175.347C181.009 175.552 180.795 175.707 180.551 175.792C180.307 175.877 180.044 175.888 179.793 175.824C179.543 175.761 179.316 175.625 179.143 175.434C178.969 175.242 178.855 175.004 178.815 174.749C178.776 174.494 178.812 174.232 178.92 173.997C179.027 173.762 179.202 173.564 179.421 173.428C179.641 173.291 179.895 173.222 180.154 173.229C180.508 173.25 180.841 173.409 181.08 173.673C181.319 173.936 181.446 174.282 181.434 174.637Z" fill="white"/>
</g>
<path d="M175.642 82.2464C176.086 82.0506 176.463 81.7284 176.726 81.3199C176.989 80.9114 177.126 80.4345 177.12 79.9488C177.136 79.633 177.089 79.3172 176.979 79.0205C176.87 78.7238 176.701 78.4526 176.483 78.2232C176.266 77.9938 176.004 77.8112 175.713 77.6863C175.423 77.5615 175.11 77.4971 174.794 77.4971C174.477 77.4971 174.164 77.5615 173.874 77.6863C173.583 77.8112 173.321 77.9938 173.104 78.2232C172.886 78.4526 172.717 78.7238 172.608 79.0205C172.498 79.3172 172.451 79.633 172.467 79.9488C172.457 80.4394 172.593 80.9219 172.857 81.3354C173.122 81.7489 173.503 82.0748 173.952 82.272C170.368 82.8096 170.528 86.7008 170.528 86.7008L179.002 86.7392C179.002 86.7392 179.2 82.7776 175.642 82.2464Z" fill="#FF3E16"/>
<path opacity="0.1" d="M175.642 82.2464C176.086 82.0506 176.463 81.7284 176.726 81.3199C176.989 80.9114 177.126 80.4345 177.12 79.9488C177.136 79.633 177.089 79.3172 176.979 79.0205C176.87 78.7238 176.701 78.4526 176.483 78.2232C176.266 77.9938 176.004 77.8112 175.713 77.6863C175.423 77.5615 175.11 77.4971 174.794 77.4971C174.477 77.4971 174.164 77.5615 173.874 77.6863C173.583 77.8112 173.321 77.9938 173.104 78.2232C172.886 78.4526 172.717 78.7238 172.608 79.0205C172.498 79.3172 172.451 79.633 172.467 79.9488C172.457 80.4394 172.593 80.9219 172.857 81.3354C173.122 81.7489 173.503 82.0748 173.952 82.272C170.368 82.8096 170.528 86.7008 170.528 86.7008L179.002 86.7392C179.002 86.7392 179.2 82.7776 175.642 82.2464Z" fill="black"/>
<path d="M189.411 89.2489L159.21 89.1119L159.193 92.7214L189.394 92.8585L189.411 89.2489Z" fill="#FF3E16"/>
<path opacity="0.2" d="M189.411 89.2489L159.21 89.1119L159.193 92.7214L189.394 92.8585L189.411 89.2489Z" fill="white"/>
<path d="M78.3808 107.955H78.08L77.2096 108.019C76.7386 108.048 76.2702 108.11 75.808 108.205C75.5087 108.247 75.2117 108.305 74.9184 108.378L73.9264 108.653C72.238 109.171 70.645 109.96 69.2096 110.989C67.3132 112.365 65.7297 114.128 64.5632 116.16C63.8776 117.332 63.332 118.58 62.9376 119.878C62.5232 121.29 62.2846 122.747 62.2272 124.218C62.1891 124.99 62.2019 125.764 62.2656 126.534C62.2656 126.925 62.3744 127.315 62.4256 127.712C62.4687 128.112 62.5436 128.508 62.6496 128.896C63.2251 131.464 64.3928 133.862 66.0596 135.899C67.7264 137.936 69.8461 139.555 72.2496 140.627C73.9892 141.378 75.8537 141.797 77.7472 141.862C79.7029 141.97 81.6605 141.689 83.5072 141.037L84.0704 140.826H84.1472L84.2112 140.864L92.2816 144.96L92.0448 145.165C91.1808 142.49 90.3488 139.898 89.5424 137.408V137.312L89.6128 137.242C91.5706 135.27 93.0239 132.855 93.8496 130.202C94.5975 127.776 94.8157 125.218 94.4896 122.701C94.1995 120.464 93.4803 118.304 92.3712 116.339C91.4152 114.652 90.182 113.137 88.7232 111.859C87.5197 110.848 86.1876 110 84.7616 109.338C83.6827 108.872 82.5589 108.518 81.408 108.282L80.128 108.07L79.2 108L78.6368 107.962H78.4448C78.5086 107.955 78.573 107.955 78.6368 107.962H79.2064L80.1344 108L81.4144 108.186C82.5797 108.405 83.7187 108.746 84.8128 109.203C86.2633 109.857 87.6194 110.703 88.8448 111.718C90.3304 112.991 91.5898 114.506 92.5696 116.198C93.7101 118.184 94.4515 120.373 94.752 122.643C95.1052 125.199 94.9022 127.802 94.1568 130.272C93.3257 132.98 91.8499 135.447 89.856 137.459L89.8944 137.293C90.7008 139.782 91.5392 142.374 92.4096 145.043L92.5312 145.434L92.1664 145.248L84.096 141.158H84.2368L83.6608 141.37C81.7785 142.032 79.7847 142.319 77.792 142.214C75.8577 142.141 73.9542 141.707 72.1792 140.934C68.7934 139.484 65.9765 136.964 64.16 133.76C63.3241 132.28 62.7137 130.684 62.3488 129.024C62.2489 128.626 62.1741 128.222 62.1248 127.814C62.0736 127.411 61.9904 127.014 61.9712 126.618C61.798 124.34 62.0387 122.051 62.6816 119.859C63.0858 118.542 63.6466 117.279 64.352 116.096C65.5463 114.045 67.1628 112.272 69.0944 110.893C70.5534 109.861 72.1732 109.078 73.888 108.576L74.8928 108.32C75.1886 108.251 75.4876 108.198 75.7888 108.16C76.2558 108.074 76.7286 108.022 77.2032 108.006L78.08 107.974C78.1797 107.961 78.2802 107.955 78.3808 107.955Z" fill="#FF3E16"/>
<path d="M82.0288 122.88H80.8448L78.2848 119.283V116.922C78.2848 116.922 76.4544 116.806 76.672 119.898C76.8896 122.989 76.672 122.202 76.672 122.202C76.672 122.202 72.7872 122.202 72.4672 122.554C72.1472 122.906 72.128 126.656 72.0832 128.749C72.0587 129.253 72.2035 129.752 72.4945 130.164C72.7856 130.577 73.2062 130.881 73.6896 131.027C73.8251 131.065 73.965 131.084 74.1056 131.085C75.0784 131.085 80.0256 130.298 80.0256 130.298H82.0672L82.0288 122.88Z" fill="#FF3E16"/>
<path d="M85.4145 122.246L84.6849 130.336H82.6625V122.413L85.4145 122.246Z" fill="#FF3E16"/>
<path d="M109.536 286.938V281.466L99.7248 281.395L99.6416 289.67L100.25 289.715C102.957 289.888 114.022 290.144 115.84 289.581C117.862 288.954 109.536 286.938 109.536 286.938Z" fill="#FF3E16"/>
<path d="M116.07 289.069C116.07 289.158 112.397 289.235 107.872 289.235C103.347 289.235 99.6736 289.158 99.6736 289.069C99.6736 288.979 103.347 288.902 107.872 288.902C112.397 288.902 116.07 288.979 116.07 289.069Z" fill="#263238"/>
<path d="M109.709 288.058C109.626 288.013 109.709 287.725 109.907 287.418C110.106 287.11 110.374 286.982 110.438 287.046C110.502 287.11 110.368 287.354 110.176 287.616C109.984 287.878 109.792 288.102 109.709 288.058Z" fill="#263238"/>
<path d="M110.336 288.416C110.246 288.416 110.291 288.058 110.483 287.718C110.675 287.379 110.931 287.174 111.002 287.226C111.072 287.277 110.957 287.565 110.778 287.866C110.598 288.166 110.419 288.448 110.336 288.416Z" fill="#263238"/>
<path d="M102.63 289.043C102.592 289.043 102.445 288.928 102.234 288.685C101.976 288.372 101.689 288.085 101.376 287.827C101.069 287.582 100.702 287.421 100.314 287.36C100.013 287.322 99.8208 287.36 99.8016 287.322C99.7824 287.283 99.968 287.149 100.32 287.123C100.785 287.113 101.238 287.267 101.6 287.558C101.939 287.835 102.226 288.171 102.445 288.55C102.592 288.832 102.669 289.018 102.63 289.043Z" fill="#263238"/>
<path d="M109.741 287.027C109.786 287.104 109.619 287.296 109.338 287.398C109.056 287.501 108.806 287.462 108.794 287.398C108.781 287.334 108.979 287.2 109.222 287.11C109.466 287.021 109.69 286.95 109.741 287.027Z" fill="#263238"/>
<path d="M109.587 286.496C109.587 286.592 109.331 286.669 108.998 286.675C108.666 286.682 108.403 286.605 108.41 286.515C108.416 286.426 108.678 286.342 108.998 286.336C109.318 286.33 109.574 286.406 109.587 286.496Z" fill="#263238"/>
<path d="M133.696 286.938V281.466L123.885 281.395L123.802 289.587L124.41 289.632C127.117 289.805 138.189 290.144 140 289.581C142.022 288.954 133.696 286.938 133.696 286.938Z" fill="#FF3E16"/>
<path d="M140.23 289.082C140.23 289.171 136.563 289.248 132.032 289.248C127.501 289.248 123.84 289.171 123.84 289.082C123.84 288.992 127.507 288.915 132.032 288.915C136.557 288.915 140.23 288.992 140.23 289.082Z" fill="#263238"/>
<path d="M133.869 288.058C133.792 288.013 133.869 287.725 134.067 287.418C134.266 287.11 134.534 286.982 134.598 287.046C134.662 287.11 134.528 287.354 134.336 287.616C134.144 287.878 133.952 288.102 133.869 288.058Z" fill="#263238"/>
<path d="M134.496 288.416C134.413 288.416 134.451 288.058 134.65 287.718C134.848 287.379 135.098 287.174 135.168 287.226C135.238 287.277 135.117 287.565 134.938 287.866C134.758 288.166 134.586 288.448 134.496 288.416Z" fill="#263238"/>
<path d="M126.79 289.043C126.752 289.043 126.611 288.928 126.394 288.685C126.136 288.372 125.849 288.085 125.536 287.827C125.229 287.582 124.862 287.421 124.474 287.36C124.179 287.322 123.981 287.36 123.962 287.322C123.942 287.283 124.128 287.149 124.48 287.123C124.945 287.113 125.398 287.267 125.76 287.558C126.101 287.833 126.388 288.17 126.605 288.55C126.752 288.832 126.829 289.018 126.79 289.043Z" fill="#263238"/>
<path d="M133.901 287.027C133.946 287.104 133.779 287.296 133.498 287.398C133.216 287.501 132.966 287.462 132.954 287.398C132.941 287.334 133.139 287.2 133.382 287.11C133.626 287.021 133.85 286.95 133.901 287.027Z" fill="#263238"/>
<path d="M133.76 286.496C133.76 286.592 133.504 286.669 133.171 286.675C132.838 286.682 132.582 286.605 132.589 286.515C132.595 286.426 132.851 286.342 133.171 286.336C133.491 286.33 133.76 286.406 133.76 286.496Z" fill="#263238"/>
<path d="M169.843 124.442C169.587 124.179 168.954 124.307 168.954 124.307C169.017 123.939 169.017 123.562 168.954 123.194C168.838 122.835 168.032 122.906 168.032 122.906C167.995 122.604 167.995 122.299 168.032 121.997C168.038 121.93 168.024 121.863 167.991 121.804C167.958 121.746 167.907 121.699 167.846 121.67C167.465 121.515 167.055 121.441 166.643 121.453C166.15 121.101 168.147 118.304 168.89 117.408C169.632 116.512 169.498 115.814 168.838 115.814C168.384 115.814 166.054 118.502 165.338 119.405C164.621 120.307 162.72 122.816 162.656 120.813C162.592 118.81 161.786 117.299 161.28 117.043C160.774 116.787 160.237 117.389 160.512 117.946C160.754 118.578 160.905 119.242 160.96 119.917C161.03 120.454 161.006 121 160.89 121.53C160.677 122.515 160.389 123.482 160.026 124.422H159.974C159.974 124.422 146.01 137.818 144.998 138.771C144.096 139.629 125.946 137.754 122.304 137.37C121.067 137.189 119.817 137.103 118.566 137.114C116.986 137.184 116.704 137.408 115.13 137.427C111.154 137.471 107.187 137.82 103.264 138.47C101.488 138.772 99.8286 139.556 98.4675 140.737C97.1064 141.917 96.0957 143.449 95.5456 145.165C91.8784 156.621 83.5712 183.738 82.1056 198.97C80.9981 200.978 79.9983 203.044 79.1104 205.158C78.08 207.962 78.3296 208.058 78.6752 208.122C79.6096 208.294 80.672 203.264 81.0688 204.48C81.4656 205.696 79.0528 210.477 80.032 210.618C81.312 210.797 82.3296 205.498 82.4512 205.075C82.5728 204.653 83.2064 204.787 83.0912 205.184C82.9056 205.747 81.1072 211.718 82.3616 211.91C83.0528 212.013 83.1296 210.752 83.1296 210.752C83.1296 210.752 84.4096 205.037 84.992 205.152C85.5744 205.267 84.9536 208.64 84.6592 209.766C84.3648 210.893 84.7744 211.462 85.376 211.187C85.7856 210.995 86.7648 207.571 87.0336 206.458C87.3024 205.344 87.9744 202.259 88.8768 204.045C89.7792 205.83 91.1488 206.867 91.712 206.893C91.8389 206.878 91.9585 206.826 92.0555 206.743C92.1524 206.66 92.2222 206.549 92.256 206.426C92.2897 206.303 92.2858 206.172 92.2447 206.051C92.2037 205.93 92.1273 205.824 92.0256 205.747C91.5412 205.274 91.1254 204.736 90.7904 204.147C90.4918 203.689 90.2753 203.182 90.1504 202.65C89.8925 201.588 89.7424 200.503 89.7024 199.411L89.6 198.771C91.0336 191.674 95.1616 170.842 101.12 157.536L103.565 162.566L104.627 166.291L98.112 182.374L125.901 182.01L121.754 166.048L126.79 149.408C132.237 149.53 146.221 149.734 148.55 148.678C151.482 147.398 166.643 128.25 166.643 128.25C167.631 127.482 168.578 126.661 169.478 125.792C169.478 125.792 170.4 125.018 169.843 124.442Z" fill="#FFBE9D"/>
<path d="M96.8896 170.49C97.696 167.738 101.837 154.131 101.837 154.131C101.837 154.131 103.872 165.222 103.334 166.56C102.84 167.705 102.256 168.809 101.587 169.862C96.8896 177.011 97.504 180.589 97.504 180.589L125.888 179.725C125.952 175.757 123.603 166.528 123.117 165.056C122.63 163.584 124.25 158.765 124.25 158.765C124.25 158.765 127.45 155.507 127.334 153.83C127.274 152.324 127.087 150.826 126.778 149.35L144.058 149.99L143.514 138.278L118.694 135.795C117.83 138.234 110.016 137.037 110.016 137.037C101.581 137.318 101.056 138.867 97.5488 141.594C94.0416 144.32 88.2368 167.718 88.2368 167.718L96.8896 170.49Z" fill="#FF3E16"/>
<path d="M113.67 167.718C113.179 167.806 112.678 167.832 112.179 167.795C111.251 167.795 109.978 167.731 108.576 167.59C107.174 167.45 105.907 167.251 105.005 167.072C104.507 167.008 104.019 166.883 103.552 166.701C104.052 166.701 104.552 166.748 105.043 166.842C105.952 166.957 107.213 167.117 108.608 167.258C110.003 167.398 111.27 167.494 112.186 167.558C112.684 167.565 113.182 167.618 113.67 167.718Z" fill="#263238"/>
<path d="M115.616 165.306C115.124 165.547 114.604 165.725 114.067 165.837C111.514 166.508 108.879 166.82 106.24 166.765C105.694 166.783 105.148 166.731 104.614 166.611C105.153 166.543 105.697 166.515 106.24 166.528C107.245 166.496 108.627 166.426 110.15 166.246C111.674 166.067 113.03 165.811 113.99 165.606C114.524 165.464 115.067 165.363 115.616 165.306Z" fill="#263238"/>
<path d="M125.165 154.541C125.152 155.029 125.085 155.514 124.966 155.987C124.8 156.877 124.544 158.093 124.218 159.424C123.891 160.755 123.578 161.984 123.296 162.816C123.183 163.292 123.015 163.754 122.797 164.192C122.832 163.706 122.923 163.225 123.066 162.758C123.309 161.76 123.584 160.608 123.891 159.347C124.198 158.086 124.493 156.934 124.736 155.936C124.823 155.455 124.967 154.987 125.165 154.541Z" fill="#263238"/>
<path d="M97.1903 168.858C95.7097 168.629 94.2485 168.289 92.8191 167.84C91.3586 167.498 89.9253 167.049 88.5311 166.496C90.011 166.728 91.472 167.068 92.9023 167.514C94.3632 167.854 95.7966 168.303 97.1903 168.858Z" fill="#263238"/>
<path d="M127.085 149.21C126.843 149.251 126.597 149.251 126.355 149.21C125.687 149.141 125.03 148.984 124.403 148.742C123.356 148.349 122.403 147.741 121.605 146.957C120.807 146.174 120.182 145.232 119.77 144.192C119.314 143.048 119.119 141.817 119.2 140.589C119.228 139.576 119.532 138.589 120.077 137.734C120.46 137.159 121.033 136.735 121.696 136.538C121.873 136.489 122.056 136.465 122.24 136.467C122.368 136.467 122.432 136.467 122.432 136.467C122.432 136.467 122.163 136.467 121.734 136.64C121.126 136.865 120.61 137.286 120.269 137.837C119.398 139.206 119.155 141.709 120.083 144.045C120.515 145.146 121.191 146.135 122.061 146.938C122.773 147.594 123.594 148.122 124.486 148.499C125.324 148.83 126.195 149.068 127.085 149.21Z" fill="#263238"/>
<path d="M142.003 149.76C141.843 147.797 141.792 145.827 141.85 143.859C141.799 141.893 141.859 139.925 142.029 137.965C142.189 139.925 142.24 141.893 142.182 143.859C142.236 145.828 142.176 147.798 142.003 149.76Z" fill="#263238"/>
<path d="M118.528 136.512C118.598 135.085 118.746 133.472 118.746 133.472C118.746 133.472 122.278 133.082 122.49 129.434C122.701 125.786 122.49 117.37 122.49 117.37L116.09 114.093L108.986 119.68L110.08 137.92L116.595 138.336C117.093 138.35 117.576 138.166 117.939 137.824C118.301 137.482 118.513 137.01 118.528 136.512Z" fill="#FFBE9D"/>
<path d="M119.162 126.547C119.162 126.547 119.162 126.618 119.104 126.701C119.056 126.761 118.995 126.809 118.924 126.84C118.854 126.871 118.777 126.885 118.701 126.88C118.291 126.88 117.894 126.406 117.754 125.856C117.687 125.589 117.687 125.31 117.754 125.043C117.767 124.927 117.809 124.815 117.876 124.719C117.943 124.623 118.033 124.545 118.138 124.493C118.224 124.457 118.32 124.457 118.406 124.493C118.47 124.524 118.522 124.576 118.554 124.64C118.598 124.749 118.554 124.819 118.554 124.813C118.554 124.806 118.554 124.749 118.49 124.685C118.456 124.639 118.407 124.607 118.351 124.595C118.296 124.583 118.238 124.593 118.189 124.621C118.11 124.668 118.045 124.735 117.999 124.814C117.953 124.894 117.928 124.983 117.926 125.075C117.872 125.313 117.872 125.56 117.926 125.798C118.054 126.298 118.4 126.701 118.707 126.739C118.767 126.747 118.828 126.743 118.887 126.727C118.945 126.71 118.999 126.682 119.046 126.643C119.123 126.592 119.149 126.541 119.162 126.547Z" fill="#EB996E"/>
<path d="M124.685 115.398C124.192 113.722 122.406 112.89 120.781 112.429C118.304 111.725 115.629 111.418 113.21 112.307C110.79 113.197 107.885 114.758 107.885 117.427C106.458 117.312 105.638 118.56 105.075 120.109C104.715 121.052 104.499 122.045 104.435 123.053C104.256 126.547 103.277 131.373 101.011 133.933C99.7312 135.36 97.9584 136.346 97.2288 138.125C96.5888 139.667 96.9216 141.498 96.3264 143.059C95.7952 144.435 94.624 145.414 93.7664 146.611C92.8927 147.969 92.3785 149.526 92.2722 151.137C92.1658 152.748 92.4708 154.36 93.1584 155.821C93.851 157.244 94.8261 158.511 96.0243 159.546C97.2226 160.58 98.6188 161.36 100.128 161.837C103.117 162.746 106.305 162.777 109.312 161.926C111.569 161.387 113.673 160.343 115.469 158.874C117.306 157.373 118.568 155.284 119.04 152.96C119.494 150.349 118.765 147.693 118.221 145.094C116.518 136.883 117.005 136.454 119.155 128.832C119.206 128.698 119.232 128.557 119.27 128.422C119.309 128.288 119.328 128.224 119.354 128.122C119.415 127.82 119.447 127.514 119.45 127.206C119.136 127.323 118.795 127.348 118.467 127.278C118.139 127.207 117.839 127.045 117.6 126.81C117.361 126.559 117.194 126.248 117.118 125.91C117.041 125.572 117.057 125.219 117.165 124.89C117.316 124.529 117.541 124.205 117.825 123.937C118.11 123.669 118.447 123.464 118.816 123.334C119.526 123.04 120.288 122.886 120.986 122.56C122.464 121.856 123.488 120.397 124.186 118.867C124.759 117.807 124.936 116.577 124.685 115.398Z" fill="#263238"/>
<path d="M119.418 126.72C119.553 126.92 119.665 127.135 119.75 127.36C119.942 127.763 120.198 128.333 120.48 128.992L120.531 129.114H120.397L119.757 129.171C119.315 129.171 118.944 129.254 118.509 129.248C118.471 129.239 118.436 129.222 118.407 129.196C118.378 129.17 118.355 129.137 118.342 129.101C118.323 129.043 118.323 128.98 118.342 128.922C118.357 128.835 118.376 128.75 118.4 128.666L118.515 128.211C118.573 127.908 118.663 127.612 118.784 127.328C118.772 127.637 118.727 127.944 118.65 128.243L118.56 128.698C118.528 128.851 118.47 129.088 118.56 129.069C118.88 129.069 119.334 128.998 119.757 128.973L120.397 128.915L120.314 129.056C120.038 128.416 119.808 127.814 119.674 127.398C119.556 127.186 119.469 126.957 119.418 126.72Z" fill="#FF3E16"/>
<path d="M97.504 180.589L125.888 179.725L138.24 227.942L135.968 283.251H120.96L122.797 229.12L111.821 195.552L113.51 285.395L98.3424 285.619L96.7488 201.171C96.6784 198.822 95.9104 193.53 96.1984 191.2L97.504 180.589Z" fill="#263238"/>
<path d="M115.597 196.237C115.132 196.266 114.666 196.238 114.208 196.154C113.35 196.051 112.179 195.872 110.893 195.616C109.606 195.36 108.454 195.066 107.622 194.829C107.178 194.731 106.747 194.576 106.342 194.368C106.342 194.272 108.429 194.771 110.989 195.29C113.549 195.808 115.61 196.141 115.597 196.237Z" fill="#455A64"/>
<path d="M135.814 280.218C135.814 280.307 132.416 280.384 128.224 280.384C124.032 280.384 120.627 280.307 120.627 280.218C120.627 280.128 124.026 280.051 128.224 280.051C132.422 280.051 135.814 280.122 135.814 280.218Z" fill="#455A64"/>
<path d="M113.376 283.059C113.376 283.155 110.074 283.226 106.003 283.226C101.933 283.226 98.6367 283.155 98.6367 283.059C98.6367 282.963 101.939 282.893 106.003 282.893C110.067 282.893 113.376 282.97 113.376 283.059Z" fill="#455A64"/>
<path d="M111.418 282.829C111.328 282.829 110.931 263.2 110.528 238.989C110.125 214.778 109.888 195.136 109.971 195.136C110.054 195.136 110.464 214.758 110.861 238.982C111.258 263.206 111.514 282.829 111.418 282.829Z" fill="#455A64"/>
<path d="M133.798 280.218C133.791 280.13 133.791 280.043 133.798 279.955V279.187C133.798 278.496 133.85 277.504 133.888 276.243C133.978 273.683 134.106 269.965 134.266 265.408C134.611 256.243 135.098 243.61 135.629 229.664C135.629 229.53 135.629 229.402 135.629 229.286V229.331C132.269 215.891 129.229 203.693 127.021 194.867L124.461 184.429C124.166 183.206 123.942 182.253 123.782 181.587C123.706 181.274 123.654 181.03 123.61 180.845C123.585 180.762 123.57 180.676 123.565 180.589C123.598 180.669 123.624 180.753 123.642 180.838C123.693 181.018 123.757 181.261 123.846 181.568C124.019 182.208 124.269 183.181 124.589 184.397C125.229 186.867 126.131 190.426 127.258 194.81C129.485 203.629 132.557 215.795 135.962 229.254V229.299C135.962 229.414 135.962 229.549 135.962 229.677C135.392 243.622 134.874 256.25 134.496 265.414C134.298 269.978 134.131 273.67 134.016 276.243C133.952 277.523 133.901 278.496 133.869 279.187C133.869 279.514 133.83 279.77 133.824 279.955C133.825 280.043 133.816 280.131 133.798 280.218Z" fill="#455A64"/>
<path d="M128.902 228.16C127.824 228.514 126.714 228.761 125.587 228.896C124.205 229.133 123.027 229.299 122.496 229.325V229.197C122.669 229.248 122.758 229.28 122.758 229.306C122.758 229.331 122.65 229.306 122.47 229.306H122.086L122.47 229.19C122.97 229.043 124.147 228.8 125.53 228.55C126.638 228.31 127.768 228.179 128.902 228.16Z" fill="#455A64"/>
<path d="M128.64 229.997C127.642 230.043 126.641 229.998 125.651 229.862C124.651 229.842 123.656 229.733 122.675 229.536C124.675 229.373 126.689 229.528 128.64 229.997Z" fill="#455A64"/>
<path opacity="0.2" d="M97.3824 181.606C97.7186 182.038 98.142 182.394 98.625 182.651C99.108 182.908 99.6398 183.06 100.186 183.098C101.329 183.233 102.485 183.211 103.622 183.034C110.95 182.221 118.714 181.472 125.888 179.725C116.602 180.243 106.79 180.07 97.504 180.589L97.408 181.382" fill="black"/>
<g opacity="0.2">
<path d="M106.95 194.694L112.186 215.008L111.821 195.552L106.95 194.694Z" fill="black"/>
</g>
</svg>
