<?xml version="1.0" encoding="utf-8"?>
<!-- Generator: Adobe Illustrator 27.0.0, SVG Export Plug-In . SVG Version: 6.00 Build 0)  -->
<svg version="1.1" id="Layer_1" xmlns="http://www.w3.org/2000/svg" xmlns:xlink="http://www.w3.org/1999/xlink" x="0px" y="0px"
	 viewBox="0 0 512 512" style="enable-background:new 0 0 512 512;" xml:space="preserve">
<style type="text/css">
	.st0{fill:#EF4425;}
</style>
<path class="st0" d="M252.8,340l13.9-8c-7.2-12.4-20.4-20-34.7-20h-33.1c30.9-17.1,42.2-56,25.1-87s-56-42.2-87-25.1
	s-42.2,56-25.1,87c5.8,10.6,14.5,19.3,25.1,25.1H104c-22.1,0-40,17.9-40,40v144h16V352c0-13.3,10.7-24,24-24h128
	C240.6,328,248.5,332.6,252.8,340z M120,256c0-26.5,21.5-48,48-48s48,21.5,48,48s-21.5,48-48,48C141.5,304,120,282.5,120,256z"/>
<path class="st0" d="M104,368h16v128h-16V368z"/>
<path class="st0" d="M392,91.7l-20.4,13.6l8.9,13.3l24-16c2.2-1.5,3.6-4,3.6-6.6V48h-16V91.7z"/>
<path class="st0" d="M464,120c2.5,0,4.9-1.2,6.4-3.2l24-31.8c2.7-3.5,1.9-8.5-1.6-11.2c-1.4-1-3.1-1.6-4.8-1.6l-17.8-0.1
	c-8.8-38.8-47.3-63.1-86.1-54.3s-63.1,47.3-54.3,86.1c8.8,38.8,47.3,63.1,86.1,54.3c11.8-2.7,22.7-8.2,31.7-16.2L437,130
	c-23.2,20.5-58.6,18.3-79-4.9c-20.5-23.2-18.3-58.6,4.9-79c23.2-20.5,58.6-18.3,79,4.9c5.4,6.1,9.4,13.3,11.7,21.1L440,72
	c-4.4,0-8,3.6-8,8c0,1.7,0.6,3.4,1.6,4.8l24,32C459.1,118.8,461.5,120,464,120z M456,88.1l16,0.1l-8,10.6L456,88.1z"/>
<path class="st0" d="M281.4,396.1L255,438.9l-13.7-10.2l-9.6,12.8l20.7,15.4c1.4,1,3.1,1.6,4.8,1.6c0.5,0,1,0,1.5-0.1
	c2.2-0.4,4.2-1.7,5.3-3.6l31-50.2L281.4,396.1z"/>
<path class="st0" d="M336,424c0-39.8-32.2-72-72-72s-72,32.2-72,72s32.2,72,72,72C303.7,496,336,463.7,336,424z M208,424
	c0-30.9,25.1-56,56-56s56,25.1,56,56s-25.1,56-56,56C233.1,480,208,454.9,208,424z"/>
<path class="st0" d="M288,272h32v16h-32V272z"/>
<path class="st0" d="M16,272h32v16H16V272z"/>
<path class="st0" d="M160,112h16v32h-16V112z"/>
<path class="st0" d="M258.5,178.2l22.6-22.6l11.3,11.3l-22.6,22.6L258.5,178.2z"/>
<path class="st0" d="M43.5,166.8l11.3-11.3l22.6,22.6l-11.3,11.3L43.5,166.8z"/>
</svg>
