<?xml version="1.0" encoding="utf-8"?>
<!-- Generator: Adobe Illustrator 27.0.0, SVG Export Plug-In . SVG Version: 6.00 Build 0)  -->
<svg version="1.1" id="Layer_1" xmlns="http://www.w3.org/2000/svg" xmlns:xlink="http://www.w3.org/1999/xlink" x="0px" y="0px"
	 viewBox="0 0 512 512" style="enable-background:new 0 0 512 512;" xml:space="preserve">
<style type="text/css">
	.st0{fill:#EF4425;}
</style>
<path class="st0" d="M128.7,239.5v-50.7h48.1c3.3,0,6-2.7,6-6s-2.7-6-6-6h-48.1v-48.1c0-3.3-2.7-6-6-6s-6,2.7-6,6v48.1H66
	c-3.3,0-6,2.7-6,6s2.7,6,6,6h50.7v50.7c0,3.3,2.7,6,6,6S128.7,242.8,128.7,239.5L128.7,239.5z"/>
<path class="st0" d="M363.8,230.7v-76c0-3.3-2.7-6-6-6c-0.9,0-1.7,0.2-2.5,0.6l-115.5,53.9c-3.3,1.5-6.6,3-9.9,4.4
	c13-59.9-25-119-85-132s-119,25-132,85C0.7,217,33.7,273.3,88.8,290.3V306c0,16.2,13.1,29.3,29.3,29.3c0.7,0,1.4,0,2.1,0v97.5
	c0,3.3,2.7,6,6,6l0,0c29,0,52.5-23.5,52.5-52.5v-44.5c21,4.5,41.5,11.4,61,20.5l115.5,53.9c3,1.4,6.6,0.1,8-2.9
	c0.4-0.8,0.6-1.7,0.6-2.5v-76c28.7-3.9,48.8-30.4,44.9-59.2C405.5,252.3,387.2,233.9,363.8,230.7L363.8,230.7z M22.4,184.1
	c0-54.7,44.3-99,99-99s99,44.3,99,99c0,54.7-44.3,99-99,99C66.7,283.1,22.4,238.8,22.4,184.1z M100.8,306v-12.8
	c22.3,4.2,45.3,1.5,66-7.8v42c-16.1-2.7-32.4-4-48.7-4C108.6,323.3,100.9,315.6,100.8,306z M166.8,386.3c0,20.1-14.7,37.1-34.5,40.1
	v-90.7c11.6,0.6,23.1,1.9,34.5,3.8L166.8,386.3z M178.8,329.6v-50.5c21.6-13.1,38.1-33.1,46.8-56.8c6.5-2.5,13-5.2,19.3-8.2l68.6-32
	v201.3l-68.6-32C223.8,341.6,201.6,334.3,178.8,329.6z M351.8,401.4L325.4,389V176.5l26.4-12.3V401.4z M363.8,322.7v-79.8
	c22,4,36.7,25,32.7,47.1C393.6,306.6,380.5,319.7,363.8,322.7z"/>
<path class="st0" d="M464.9,282.8c0-30-17.9-57.1-45.5-68.8c-3-1.3-6.6,0.1-7.9,3.1s0.1,6.6,3.1,7.9c0,0,0,0,0.1,0
	c31.9,13.6,46.7,50.4,33.1,82.3c-6.4,14.9-18.2,26.8-33.1,33.1c-3.1,1.3-4.5,4.8-3.2,7.9c1.3,3.1,4.8,4.5,7.9,3.2c0,0,0,0,0.1,0
	C447,339.8,464.9,312.7,464.9,282.8z"/>
<path class="st0" d="M434.3,180.9c-3-1.3-6.6,0.1-7.9,3.1s0.1,6.6,3.1,7.9c0,0,0,0,0.1,0c50.2,21.4,73.5,79.3,52.2,129.5
	c-10,23.5-28.7,42.2-52.2,52.2c-3.1,1.3-4.5,4.8-3.2,7.9c1.3,3.1,4.8,4.5,7.9,3.2c0,0,0,0,0.1,0c56.3-24,82.5-89,58.5-145.3
	C481.6,213.1,460.6,192.1,434.3,180.9L434.3,180.9z"/>
</svg>
