<svg width="24" height="24" viewBox="0 0 24 24" fill="none" xmlns="http://www.w3.org/2000/svg">
<g clip-path="url(#clip0_755_1653)">
<path d="M18.8149 13.67C18.3461 13.2013 17.7103 12.938 17.0474 12.938C16.3845 12.938 15.7487 13.2013 15.2799 13.67L14.2149 14.73C13.9337 15.0109 13.5524 15.1687 13.1549 15.1687C12.7574 15.1687 12.3762 15.0109 12.0949 14.73L9.26992 11.905C8.98902 11.6237 8.83124 11.2425 8.83124 10.845C8.83124 10.4475 8.98902 10.0663 9.26992 9.785C10.2699 8.785 11.0599 8.215 11.0599 6.955C11.0599 5.575 10.4849 5.345 6.43992 1.295C5.9711 0.826322 5.33533 0.563034 4.67242 0.563034C4.00951 0.563034 3.37374 0.826322 2.90492 1.295L2.19492 2C0.788889 3.40646 -0.000976563 5.31377 -0.000976562 7.3025C-0.000976563 9.29123 0.788889 11.1985 2.19492 12.605L11.3899 21.805C12.7964 23.211 14.7037 24.0009 16.6924 24.0009C18.6812 24.0009 20.5885 23.211 21.9949 21.805L22.7049 21.095C23.1736 20.6262 23.4369 19.9904 23.4369 19.3275C23.4369 18.6646 23.1736 18.0288 22.7049 17.56L18.8149 13.67ZM21.9999 20.39C21.3394 21.1584 20.5448 21.8005 19.6549 22.285L15.6549 18.285C15.5601 18.1882 15.4307 18.133 15.2952 18.1316C15.1597 18.1302 15.0292 18.1827 14.9324 18.2775C14.8356 18.3723 14.7804 18.5017 14.779 18.6372C14.7776 18.7727 14.8301 18.9032 14.9249 19L18.6499 22.7C17.5151 23.0582 16.3037 23.0979 15.1478 22.8149C13.9919 22.5318 12.9359 21.9369 12.0949 21.095L2.90492 11.905C2.06298 11.064 1.46808 10.008 1.18506 8.85212C0.902039 7.69624 0.941771 6.48485 1.29992 5.35L5.02492 9.075C5.12057 9.15691 5.24361 9.19972 5.36945 9.19486C5.49529 9.19 5.61466 9.13783 5.7037 9.04878C5.79275 8.95973 5.84492 8.84037 5.84978 8.71453C5.85464 8.58869 5.81184 8.46565 5.72992 8.37L1.72992 4.37C2.20781 3.47262 2.84483 2.66957 3.60992 2C3.89117 1.7191 4.27242 1.56132 4.66992 1.56132C5.06742 1.56132 5.44867 1.7191 5.72992 2C9.88992 6.16 10.0599 6.115 10.0599 6.95C10.0599 7.785 9.51492 8.115 8.55992 9.07C8.09124 9.53882 7.82796 10.1746 7.82796 10.8375C7.82796 11.5004 8.09124 12.1362 8.55992 12.605L11.3899 15.435C11.8587 15.9037 12.4945 16.167 13.1574 16.167C13.8203 16.167 14.4561 15.9037 14.9249 15.435L15.9999 14.38C16.2861 14.1085 16.6655 13.9571 17.0599 13.9571C17.4544 13.9571 17.8338 14.1085 18.1199 14.38L21.9999 18.27C22.2808 18.5513 22.4386 18.9325 22.4386 19.33C22.4386 19.7275 22.2808 20.1087 21.9999 20.39V20.39ZM17.9999 9.5C17.9999 9.63261 18.0526 9.75979 18.1464 9.85355C18.2401 9.94732 18.3673 10 18.4999 10C18.6325 10 18.7597 9.94732 18.8535 9.85355C18.9472 9.75979 18.9999 9.63261 18.9999 9.5C18.9999 5.47 13.9999 4.11 13.9999 5.5C13.9999 5.63261 14.0526 5.75979 14.1464 5.85355C14.2401 5.94732 14.3673 6 14.4999 6C15.4282 6 16.3184 6.36875 16.9748 7.02513C17.6312 7.6815 17.9999 8.57174 17.9999 9.5ZM14.4999 0C14.3673 0 14.2401 0.0526784 14.1464 0.146447C14.0526 0.240215 13.9999 0.367392 13.9999 0.5C13.9999 0.632608 14.0526 0.759785 14.1464 0.853553C14.2401 0.947322 14.3673 1 14.4999 1C15.6162 1 16.7215 1.21986 17.7527 1.64702C18.784 2.07419 19.721 2.70029 20.5103 3.48959C21.2996 4.27889 21.9257 5.21592 22.3529 6.24719C22.7801 7.27846 22.9999 8.38376 22.9999 9.5C22.9999 9.63261 23.0526 9.75979 23.1464 9.85355C23.2401 9.94732 23.3673 10 23.4999 10C23.6325 10 23.7597 9.94732 23.8535 9.85355C23.9472 9.75979 23.9999 9.63261 23.9999 9.5C23.9999 6.98044 22.999 4.56408 21.2174 2.78249C19.4358 1.00089 17.0195 0 14.4999 0V0Z" fill="#FF3E16"/>
</g>
<defs>
<clipPath id="clip0_755_1653">
<rect width="24" height="24" fill="white"/>
</clipPath>
</defs>
</svg>
