<?xml version="1.0" encoding="utf-8"?>
<!-- Generator: Adobe Illustrator 27.0.0, SVG Export Plug-In . SVG Version: 6.00 Build 0)  -->
<svg version="1.1" id="Layer_1" xmlns="http://www.w3.org/2000/svg" xmlns:xlink="http://www.w3.org/1999/xlink" x="0px" y="0px"
	 viewBox="0 0 512 512" style="enable-background:new 0 0 512 512;" xml:space="preserve">
<style type="text/css">
	.st0{fill:#EF4425;}
</style>
<g>
	<g>
		<g>
			<path class="st0" d="M348.9,256c0-51.3-41.6-92.9-92.9-92.9s-92.9,41.6-92.9,92.9c0,51.3,41.6,92.9,92.9,92.9
				S348.9,307.3,348.9,256z M179.6,256c0-42.1,34.3-76.4,76.4-76.4c42.1,0,76.4,34.3,76.4,76.4c0,22.1-9.4,42-24.4,55.9
				c-1.7-4.5-4.4-8.6-7.9-12.1c-6.7-6.6-15.5-10.3-24.9-10.3h-38.4c-9.4,0-18.2,3.7-24.9,10.3c-3.5,3.5-6.2,7.6-7.9,12.1
				C189,298,179.6,278.1,179.6,256z M218.3,322.4c0.5-4.1,2.3-7.9,5.3-10.9c3.5-3.5,8.2-5.5,13.2-5.5h38.4c5,0,9.7,1.9,13.2,5.5
				c3,3,4.8,6.8,5.3,10.8c-11.1,6.3-24,10-37.7,10C242.3,332.4,229.4,328.7,218.3,322.4z"/>
			<path class="st0" d="M256,277.2c20,0,36.3-16.3,36.3-36.3c0-20-16.3-36.3-36.3-36.3c-20,0-36.3,16.3-36.3,36.3
				C219.7,261,236,277.2,256,277.2z M256,221.2c10.9,0,19.8,8.9,19.8,19.8c0,10.9-8.9,19.8-19.8,19.8c-10.9,0-19.8-8.9-19.8-19.8
				C236.2,230.1,245.1,221.2,256,221.2z"/>
			<path class="st0" d="M468.4,210l-16.1,3.5c1.2,5.6,2.2,11.2,2.9,16.9l16.4-2.1C470.8,222.1,469.7,216,468.4,210z"/>
			<path class="st0" d="M473.3,256c0-3.1-0.1-6.2-0.2-9.3l-16.5,0.7c0.1,2.8,0.2,5.7,0.2,8.6c0,2.9-0.1,5.7-0.2,8.6l16.5,0.7
				C473.2,262.2,473.3,259.1,473.3,256z"/>
			<path class="st0" d="M471.5,283.7l-16.4-2.1c-0.7,5.7-1.7,11.4-2.9,16.9l16.1,3.5C469.7,296,470.8,289.9,471.5,283.7z"/>
			<path class="st0" d="M339.7,55.5c-5.7-2.4-11.5-4.5-17.4-6.4l-5.1,15.7c5.4,1.7,10.8,3.7,16.1,5.9L339.7,55.5z"/>
			<path class="st0" d="M363.7,86.6l8.9-13.9c-2.6-1.6-5.2-3.2-7.9-4.8c-2.7-1.5-5.4-3-8.1-4.5L348.9,78c2.5,1.3,5,2.7,7.5,4.1
				C358.9,83.6,361.3,85,363.7,86.6z"/>
			<path class="st0" d="M402,95c-4.5-4.1-9.3-8.1-14.3-11.8l-10,13.1c4.6,3.5,9,7.1,13.2,10.9L402,95z"/>
			<path class="st0" d="M194.7,64.8L189.6,49c-5.8,1.9-11.7,4-17.4,6.4l6.4,15.2C183.9,68.5,189.3,66.5,194.7,64.8z"/>
			<path class="st0" d="M155.6,82.1c2.5-1.4,5-2.8,7.5-4.1l-7.6-14.6c-2.7,1.4-5.4,2.9-8.1,4.5c-2.7,1.6-5.3,3.2-7.9,4.8l8.9,13.9
				C150.7,85,153.1,83.6,155.6,82.1z"/>
			<path class="st0" d="M134.2,96.4l-10-13.1c-4.9,3.7-9.7,7.7-14.3,11.8l11.1,12.2C125.2,103.5,129.7,99.8,134.2,96.4z"/>
			<path class="st0" d="M59.7,298.5c-1.2-5.6-2.2-11.2-2.9-16.9l-16.4,2.1c0.8,6.1,1.8,12.2,3.1,18.3L59.7,298.5z"/>
			<path class="st0" d="M38.7,256c0,3.1,0.1,6.2,0.2,9.3l16.5-0.7c-0.1-2.8-0.2-5.7-0.2-8.6c0-2.9,0.1-5.7,0.2-8.6l-16.5-0.7
				C38.8,249.8,38.7,252.9,38.7,256z"/>
			<path class="st0" d="M59.7,213.5L43.6,210c-1.3,6-2.3,12.1-3.1,18.3l16.4,2.1C57.6,224.7,58.5,219,59.7,213.5z"/>
			<path class="st0" d="M172.3,456.5c5.7,2.4,11.5,4.5,17.4,6.4l5.1-15.7c-5.4-1.7-10.8-3.7-16.1-5.9L172.3,456.5z"/>
			<path class="st0" d="M148.3,425.4l-8.9,13.9c2.6,1.6,5.2,3.2,7.9,4.8c2.7,1.5,5.4,3,8.1,4.5l7.6-14.6c-2.5-1.3-5-2.7-7.5-4.1
				C153.1,428.4,150.7,427,148.3,425.4z"/>
			<path class="st0" d="M110,417c4.5,4.1,9.3,8.1,14.3,11.8l10-13.1c-4.6-3.5-9-7.1-13.2-10.9L110,417z"/>
			<path class="st0" d="M377.8,415.6l10,13.1c4.9-3.7,9.7-7.7,14.3-11.8L391,404.7C386.8,408.5,382.3,412.2,377.8,415.6z"/>
			<path class="st0" d="M356.4,429.9c-2.5,1.4-5,2.8-7.5,4.1l7.6,14.6c2.7-1.4,5.4-2.9,8.1-4.5c2.7-1.6,5.3-3.2,7.9-4.8l-8.9-13.9
				C361.3,426.9,358.9,428.4,356.4,429.9z"/>
			<path class="st0" d="M317.3,447.2l5.1,15.7c5.8-1.9,11.7-4,17.4-6.4l-6.4-15.2C328.1,443.5,322.7,445.5,317.3,447.2z"/>
			<rect x="247.7" y="107" class="st0" width="16.5" height="44"/>
			<path class="st0" d="M256,93.9c25.9,0,47-21.1,47-47S281.9,0,256,0s-47,21.1-47,47S230.1,93.9,256,93.9z M256,16.5
				c16.8,0,30.5,13.7,30.5,30.5c0,16.8-13.7,30.5-30.5,30.5c-16.8,0-30.5-13.7-30.5-30.5C225.5,30.2,239.2,16.5,256,16.5z"/>
			<rect x="137.7" y="170.5" transform="matrix(0.5 -0.866 0.866 0.5 -93.7136 222.6443)" class="st0" width="16.5" height="44"/>
			<path class="st0" d="M51.5,192.2c7.1,4.1,15.2,6.3,23.4,6.3c16.7,0,32.3-9,40.7-23.5c12.9-22.4,5.2-51.2-17.2-64.2
				c-7.1-4.1-15.3-6.3-23.5-6.3c-16.7,0-32.3,9-40.7,23.5c-6.3,10.9-7.9,23.5-4.7,35.6C32.8,175.8,40.6,185.9,51.5,192.2z
				 M48.6,136.3C54,126.9,64.1,121,75,121c5.3,0,10.6,1.4,15.2,4.1c14.5,8.4,19.5,27.1,11.1,41.6c-5.4,9.4-15.5,15.2-26.4,15.2
				c-5.3,0-10.6-1.4-15.2-4.1c-7-4.1-12.1-10.6-14.2-18.5C43.5,151.5,44.5,143.3,48.6,136.3z"/>
			
				<rect x="124" y="311.3" transform="matrix(0.866 -0.5001 0.5001 0.866 -140.221 115.8257)" class="st0" width="44" height="16.5"/>
			<path class="st0" d="M115.6,337c-8.4-14.5-24-23.5-40.7-23.5c-8.2,0-16.3,2.2-23.5,6.3c-22.4,12.9-30.1,41.7-17.2,64.2
				c8.4,14.5,24,23.5,40.7,23.5c8.2,0,16.3-2.2,23.4-6.3C120.9,388.2,128.6,359.5,115.6,337z M90.2,386.9c-4.6,2.7-9.9,4.1-15.2,4.1
				c-10.9,0-21-5.8-26.4-15.2c-8.4-14.5-3.4-33.2,11.1-41.6c4.6-2.7,9.9-4.1,15.2-4.1c10.9,0,21,5.8,26.4,15.2
				C109.7,359.8,104.7,378.5,90.2,386.9z"/>
			<rect x="247.7" y="361" class="st0" width="16.5" height="44"/>
			<path class="st0" d="M256,418.1c-25.9,0-47,21.1-47,47c0,25.9,21.1,47,47,47h0c12.5,0,24.3-4.9,33.2-13.8
				c8.9-8.9,13.7-20.7,13.7-33.2C303,439.1,281.9,418.1,256,418.1z M277.5,486.6c-5.8,5.7-13.4,8.9-21.5,8.9h0
				c-16.8,0-30.5-13.7-30.5-30.5s13.7-30.5,30.4-30.5c16.8,0,30.5,13.7,30.5,30.5C286.4,473.2,283.3,480.8,277.5,486.6z"/>
			<rect x="357.7" y="297.5" transform="matrix(0.5 -0.866 0.866 0.5 -93.687 476.7066)" class="st0" width="16.5" height="44"/>
			<path class="st0" d="M460.5,319.8c-7.1-4.1-15.2-6.3-23.4-6.3c-16.7,0-32.3,9-40.7,23.5c-12.9,22.4-5.2,51.2,17.2,64.2
				c7.1,4.1,15.3,6.3,23.5,6.3c0,0,0,0,0,0c16.7,0,32.3-9,40.7-23.5c6.3-10.9,7.9-23.5,4.7-35.6
				C479.1,336.2,471.4,326.1,460.5,319.8z M463.4,375.8C458,385.1,447.9,391,437,391h0c-5.3,0-10.6-1.4-15.2-4.1
				c-14.5-8.4-19.5-27.1-11.1-41.6c5.4-9.4,15.5-15.2,26.4-15.2c5.3,0,10.6,1.4,15.2,4.1c7,4.1,12.1,10.6,14.2,18.5
				C468.5,360.5,467.5,368.7,463.4,375.8z"/>
			<rect x="344" y="184.2" transform="matrix(0.866 -0.5 0.5 0.866 -47.2067 208.7961)" class="st0" width="44" height="16.5"/>
			<path class="st0" d="M396.3,175c8.4,14.5,24,23.5,40.7,23.5c8.2,0,16.3-2.2,23.5-6.3c10.9-6.3,18.6-16.4,21.9-28.5
				c3.2-12.1,1.6-24.8-4.7-35.6c-8.4-14.5-24-23.5-40.7-23.5c-8.2,0-16.3,2.2-23.5,6.3C391.1,123.8,383.4,152.5,396.3,175z
				 M421.8,125.1c4.6-2.7,9.9-4.1,15.2-4.1c10.9,0,21,5.8,26.4,15.2c4.1,7,5.1,15.2,3,23.1c-2.1,7.9-7.1,14.4-14.2,18.5
				c-4.6,2.7-9.9,4.1-15.2,4.1c-10.9,0-21-5.8-26.4-15.2C402.3,152.2,407.3,133.5,421.8,125.1z"/>
		</g>
	</g>
</g>
</svg>
