<?xml version="1.0" encoding="utf-8"?>
<!-- Generator: Adobe Illustrator 27.0.0, SVG Export Plug-In . SVG Version: 6.00 Build 0)  -->
<svg version="1.1" id="svg1347" xmlns:svg="http://www.w3.org/2000/svg"
	 xmlns="http://www.w3.org/2000/svg" xmlns:xlink="http://www.w3.org/1999/xlink" x="0px" y="0px" viewBox="0 0 682.7 682.7"
	 style="enable-background:new 0 0 682.7 682.7;" xml:space="preserve">
<style type="text/css">
	.st0{fill:none;stroke:#EF4425;stroke-width:40;stroke-linecap:round;stroke-linejoin:round;stroke-miterlimit:13.3333;}
</style>
<g id="g1357">
	<g id="g1363" transform="translate(111.4004,497)">
		<path id="path1365" class="st0" d="M37.1-477c-11.4,0-22.3,4.5-30.3,12.6c-8,8-12.5,18.9-12.5,30.3v570.5
			c0,16.2,13.1,29.3,29.2,29.3h0.1c8.7,0,16.9-3.4,23-9.6C75,127.7,158.8,44,193.4,9.4c9.6-9.7,22.8-15.1,36.5-15.1
			c13.7,0,26.9,5.5,36.5,15.1c34.7,34.6,118.9,118.8,147,146.9c6,6,14,9.3,22.5,9.3c16.4,0,29.7-13.3,29.7-29.6v-570.2
			c0-11.4-4.5-22.3-12.5-30.3c-8-8-19-12.6-30.3-12.6H37.1z"/>
	</g>
</g>
</svg>
