<svg width="24" height="24" viewBox="0 0 24 24" fill="none" xmlns="http://www.w3.org/2000/svg">
<g clip-path="url(#clip0_732_3954)">
<path d="M18.75 0.75L9.45825 10.041C8.44971 9.73526 7.3836 9.66992 6.34528 9.85021C5.30695 10.0305 4.32526 10.4514 3.47882 11.0792C2.63238 11.707 1.94469 12.5243 1.47084 13.4656C0.996977 14.4069 0.75011 15.4461 0.75 16.5C0.75 18.2902 1.46116 20.0071 2.72703 21.273C3.9929 22.5388 5.70979 23.25 7.5 23.25C8.55388 23.2498 9.59308 23.0029 10.5344 22.5289C11.4757 22.055 12.2929 21.3672 12.9207 20.5207C13.5484 19.6741 13.9692 18.6924 14.1494 17.654C14.3296 16.6157 14.2641 15.5495 13.9583 14.541L15.75 12.75V11.25H17.25L23.25 5.25V0.75H18.75ZM21.75 4.62825L16.629 9.75H14.25V12.1282L12.8978 13.4797L12.2618 14.1157L12.5228 14.976C12.6735 15.4725 12.75 15.9848 12.75 16.5C12.75 19.395 10.3942 21.75 7.5 21.75C4.60575 21.75 2.25 19.395 2.25 16.5C2.25 13.605 4.60575 11.25 7.5 11.25C8.0145 11.25 8.5275 11.3265 9.02325 11.4765L9.88275 11.7375L10.5187 11.1015L19.371 2.25H21.75V4.62825Z" fill="#FF3E16"/>
<path d="M6 19.5C6.82843 19.5 7.5 18.8284 7.5 18C7.5 17.1716 6.82843 16.5 6 16.5C5.17157 16.5 4.5 17.1716 4.5 18C4.5 18.8284 5.17157 19.5 6 19.5Z" fill="black"/>
<path d="M15.4845 7.98525L19.9845 3.48524L20.5147 4.01549L16.0147 8.51549L15.4845 7.98525Z" fill="black"/>
</g>
<defs>
<clipPath id="clip0_732_3954">
<rect width="24" height="24" fill="white"/>
</clipPath>
</defs>
</svg>
