<svg width="24" height="24" viewBox="0 0 24 24" fill="none" xmlns="http://www.w3.org/2000/svg">
<path d="M11.918 17.0936C8.89496 17.0936 6.64829 15.6409 4.47545 14.2359C3.45502 13.5761 2.39992 12.8939 1.28781 12.3835C1.28542 12.3825 1.28302 12.3813 1.28068 12.3802C1.23067 12.3557 1.17868 12.3327 1.12534 12.3093C1.0111 12.2593 0.937275 12.1464 0.937134 12.0217C0.936993 11.897 1.01049 11.784 1.12459 11.7336C2.30096 11.2142 3.42606 10.5095 4.51412 9.82786C6.74499 8.43033 9.05185 6.98522 12.0186 6.94992C12.0211 6.94992 12.0235 6.94992 12.0261 6.94992C14.9924 6.98526 17.2994 8.43037 19.5305 9.82786C20.6186 10.5095 21.7437 11.2142 22.9201 11.7336C23.0343 11.784 23.1079 11.8973 23.1075 12.0222C23.1071 12.147 23.0329 12.2599 22.9184 12.3097C22.8593 12.3353 22.8099 12.3579 22.7628 12.3807C22.7608 12.3817 22.7589 12.3826 22.7569 12.3835C21.6452 12.8937 20.5903 13.5757 19.5701 14.2353C17.3719 15.6565 15.0993 17.125 12.0224 17.093C11.9876 17.0934 11.9521 17.0936 11.918 17.0936ZM1.98859 12.0226C2.97742 12.5184 3.91065 13.1218 4.81688 13.7077C7.00946 15.1254 9.08082 16.4646 11.9179 16.4646C11.9511 16.4659 11.9851 16.4644 12.0187 16.464C12.0211 16.464 12.0234 16.464 12.0258 16.464C12.0593 16.4644 12.0925 16.4646 12.1259 16.4646C14.9635 16.4646 17.0352 15.1252 19.2285 13.7072C20.1346 13.1214 21.0674 12.5182 22.0559 12.0226C21.0631 11.5301 20.1168 10.9373 19.1965 10.3608C16.9407 8.94778 14.8102 7.61311 12.0222 7.5788C9.23387 7.61306 7.10345 8.94778 4.84787 10.3608C3.92767 10.9373 2.98135 11.5302 1.98859 12.0226Z" fill="#FF3E16"/>
<path d="M12.0223 14.7887C10.4957 14.7887 9.25366 13.5473 9.25366 12.0213C9.25366 10.4953 10.4957 9.25383 12.0223 9.25383C13.5489 9.25383 14.7909 10.4953 14.7909 12.0213C14.7909 13.5473 13.5489 14.7887 12.0223 14.7887ZM12.0223 9.8827C10.8424 9.8827 9.88258 10.8421 9.88258 12.0213C9.88258 13.2005 10.8424 14.1598 12.0223 14.1598C13.2021 14.1598 14.162 13.2005 14.162 12.0213C14.162 10.8421 13.2021 9.8827 12.0223 9.8827Z" fill="black"/>
<path d="M19.8457 20.1553C19.7652 20.1553 19.6848 20.1246 19.6234 20.0633L3.97755 4.42623C3.85469 4.30346 3.85464 4.10434 3.97746 3.98152C4.10017 3.85866 4.2993 3.85862 4.42216 3.98138L20.068 19.6185C20.1908 19.7412 20.1909 19.9404 20.0681 20.0632C20.0067 20.1246 19.9262 20.1553 19.8457 20.1553Z" fill="black"/>
<path d="M19.8457 20.1553C19.7652 20.1553 19.6848 20.1246 19.6234 20.0633L3.97755 4.42623C3.85469 4.30346 3.85464 4.10434 3.97746 3.98152C4.10017 3.85866 4.2993 3.85862 4.42216 3.98138L20.068 19.6185C20.1908 19.7412 20.1909 19.9404 20.0681 20.0632C20.0067 20.1246 19.9262 20.1553 19.8457 20.1553Z" fill="black"/>
</svg>
