<?xml version="1.0" encoding="utf-8"?>
<!-- Generator: Adobe Illustrator 27.0.0, SVG Export Plug-In . SVG Version: 6.00 Build 0)  -->
<svg version="1.1" id="Capa_1" xmlns="http://www.w3.org/2000/svg" xmlns:xlink="http://www.w3.org/1999/xlink" x="0px" y="0px"
	 viewBox="0 0 456.3 456.3" style="enable-background:new 0 0 456.3 456.3;" xml:space="preserve">
<style type="text/css">
	.st0{fill:#EF4425;}
</style>
<g>
	<path class="st0" d="M227.8,456.3c-38.2,0-76.7-9.5-111.5-29.1c-6.5-3.6-8.8-11.8-5.1-18.3c3.6-6.5,11.8-8.8,18.3-5.1
		c78.3,44.1,177.5,30.5,241.2-33.2c78.5-78.5,78.5-206.3,0-284.8c-78.5-78.5-206.3-78.5-284.9,0c-78.5,78.5-78.5,206.3,0,284.8
		c5.2,5.2,5.2,13.8,0,19c-5.2,5.2-13.7,5.2-19,0c-89-89-89-233.8,0-322.8c89-89,233.8-89,322.8,0c89,89,89,233.8,0,322.8
		C345.7,433.4,287,456.3,227.8,456.3z"/>
	<path class="st0" d="M228.2,346.8c-7.4,0-13.4-6-13.4-13.4V131.7c0-7.4,6-13.4,13.4-13.4c7.4,0,13.4,6,13.4,13.4v201.7
		C241.6,340.8,235.6,346.8,228.2,346.8z"/>
	<path class="st0" d="M329,246H127.3c-7.4,0-13.4-6-13.4-13.4s6-13.4,13.4-13.4H329c7.4,0,13.4,6,13.4,13.4S336.4,246,329,246z"/>
</g>
</svg>
