<svg width="16" height="10" viewBox="0 0 16 10" fill="none" xmlns="http://www.w3.org/2000/svg">
<path d="M1.78249 8.2175C1.71116 8.14922 1.62705 8.0957 1.53499 8.06C1.3524 7.98499 1.14759 7.98499 0.964991 8.06C0.872928 8.0957 0.788819 8.14922 0.717491 8.2175C0.649211 8.28883 0.595687 8.37294 0.559991 8.465C0.502557 8.60158 0.486865 8.75212 0.514895 8.89761C0.542926 9.0431 0.613423 9.17703 0.717491 9.2825C0.790392 9.34875 0.874103 9.40202 0.964991 9.44C1.05477 9.47968 1.15184 9.50017 1.24999 9.50017C1.34814 9.50017 1.44522 9.47968 1.53499 9.44C1.62588 9.40202 1.70959 9.34875 1.78249 9.2825C1.88656 9.17703 1.95706 9.0431 1.98509 8.89761C2.01312 8.75212 1.99743 8.60158 1.93999 8.465C1.9043 8.37294 1.85077 8.28883 1.78249 8.2175ZM4.24999 2H14.75C14.9489 2 15.1397 1.92098 15.2803 1.78033C15.421 1.63968 15.5 1.44891 15.5 1.25C15.5 1.05109 15.421 0.860322 15.2803 0.71967C15.1397 0.579018 14.9489 0.5 14.75 0.5H4.24999C4.05108 0.5 3.86031 0.579018 3.71966 0.71967C3.57901 0.860322 3.49999 1.05109 3.49999 1.25C3.49999 1.44891 3.57901 1.63968 3.71966 1.78033C3.86031 1.92098 4.05108 2 4.24999 2ZM1.78249 4.4675C1.67702 4.36343 1.54309 4.29293 1.3976 4.2649C1.25211 4.23687 1.10157 4.25257 0.964991 4.31C0.874103 4.34798 0.790392 4.40125 0.717491 4.4675C0.649211 4.53883 0.595687 4.62294 0.559991 4.715C0.520312 4.80478 0.499817 4.90185 0.499817 5C0.499817 5.09815 0.520312 5.19522 0.559991 5.285C0.597973 5.37589 0.651243 5.4596 0.717491 5.5325C0.790392 5.59875 0.874103 5.65202 0.964991 5.69C1.05477 5.72968 1.15184 5.75017 1.24999 5.75017C1.34814 5.75017 1.44522 5.72968 1.53499 5.69C1.62588 5.65202 1.70959 5.59875 1.78249 5.5325C1.84874 5.4596 1.90201 5.37589 1.93999 5.285C1.97967 5.19522 2.00017 5.09815 2.00017 5C2.00017 4.90185 1.97967 4.80478 1.93999 4.715C1.9043 4.62294 1.85077 4.53883 1.78249 4.4675ZM14.75 4.25H4.24999C4.05108 4.25 3.86031 4.32902 3.71966 4.46967C3.57901 4.61032 3.49999 4.80109 3.49999 5C3.49999 5.19891 3.57901 5.38968 3.71966 5.53033C3.86031 5.67098 4.05108 5.75 4.24999 5.75H14.75C14.9489 5.75 15.1397 5.67098 15.2803 5.53033C15.421 5.38968 15.5 5.19891 15.5 5C15.5 4.80109 15.421 4.61032 15.2803 4.46967C15.1397 4.32902 14.9489 4.25 14.75 4.25ZM1.78249 0.7175C1.71116 0.649219 1.62705 0.595696 1.53499 0.56C1.39841 0.502565 1.24787 0.486874 1.10238 0.514904C0.956889 0.542935 0.822959 0.613432 0.717491 0.7175C0.651243 0.790401 0.597973 0.874111 0.559991 0.965C0.520312 1.05478 0.499817 1.15185 0.499817 1.25C0.499817 1.34815 0.520312 1.44522 0.559991 1.535C0.597973 1.62589 0.651243 1.7096 0.717491 1.7825C0.790392 1.84875 0.874103 1.90202 0.964991 1.94C1.10157 1.99743 1.25211 2.01313 1.3976 1.9851C1.54309 1.95707 1.67702 1.88657 1.78249 1.7825C1.84874 1.7096 1.90201 1.62589 1.93999 1.535C1.97967 1.44522 2.00017 1.34815 2.00017 1.25C2.00017 1.15185 1.97967 1.05478 1.93999 0.965C1.90201 0.874111 1.84874 0.790401 1.78249 0.7175ZM14.75 8H4.24999C4.05108 8 3.86031 8.07902 3.71966 8.21967C3.57901 8.36032 3.49999 8.55109 3.49999 8.75C3.49999 8.94891 3.57901 9.13968 3.71966 9.28033C3.86031 9.42098 4.05108 9.5 4.24999 9.5H14.75C14.9489 9.5 15.1397 9.42098 15.2803 9.28033C15.421 9.13968 15.5 8.94891 15.5 8.75C15.5 8.55109 15.421 8.36032 15.2803 8.21967C15.1397 8.07902 14.9489 8 14.75 8Z" fill="#FF8424"/>
</svg>
