<?xml version="1.0" encoding="utf-8"?>
<!-- Generator: Adobe Illustrator 27.0.0, SVG Export Plug-In . SVG Version: 6.00 Build 0)  -->
<svg version="1.1" id="Capa_1" xmlns="http://www.w3.org/2000/svg" xmlns:xlink="http://www.w3.org/1999/xlink" x="0px" y="0px"
	 viewBox="0 0 512 512" style="enable-background:new 0 0 512 512;" xml:space="preserve">
<style type="text/css">
	.st0{fill:#EF4425;}
</style>
<g transform="translate(1 1)">
	<g>
		<path class="st0" d="M436.4,44.6c-5.6-3.3-15.2-7.8-28.1-12.2c-51-17.5-107.5-17.5-163.2,11.8c-44.1,23.1-88.7,23.1-129.6,9.2
			c-3.7-1.3-7-2.5-9.9-3.7V20.3C105.7,8.6,96.1-1,84.3-1S63,8.6,63,20.3V63v213.7v212.9c0,11.8,9.6,21.3,21.3,21.3
			s21.3-9.6,21.3-21.3v-181c50,16.1,105,15.4,159.2-13.1c44.1-23.1,88.7-23.1,129.6-9.2c10.1,3.4,17.1,6.8,20.5,8.7
			c14.2,8.3,32.1-2,32.1-18.4V63C447,55.4,443,48.4,436.4,44.6z M404.3,244.8c-50-16.1-105-15.4-159.2,13.1
			C201,281,156.4,281,115.5,267c-3.7-1.3-7-2.5-9.9-3.7V95c50,16.1,105,15.4,159.2-13.1c44.1-23.1,88.7-23.1,129.6-9.2
			c3.7,1.3,7,2.5,9.9,3.7L404.3,244.8L404.3,244.8z"/>
	</g>
</g>
</svg>
