<?xml version="1.0" encoding="utf-8"?>
<!-- Generator: Adobe Illustrator 27.0.0, SVG Export Plug-In . SVG Version: 6.00 Build 0)  -->
<svg version="1.1" id="Layer_2_00000158004674749562325900000013706570322607548345_"
	 xmlns="http://www.w3.org/2000/svg" xmlns:xlink="http://www.w3.org/1999/xlink" x="0px" y="0px" viewBox="0 0 512 512"
	 style="enable-background:new 0 0 512 512;" xml:space="preserve">
<style type="text/css">
	.st0{fill:#EF4425;}
</style>
<g>
	<g>
		<path class="st0" d="M85.3,266.7c0-5.9,4.8-10.7,10.7-10.7h170.7c5.9,0,10.7,4.8,10.7,10.7s-4.8,10.7-10.7,10.7H96
			C90.1,277.3,85.3,272.6,85.3,266.7z"/>
	</g>
</g>
<g>
	<g>
		<path class="st0" d="M0,373.3c0-5.9,4.8-10.7,10.7-10.7h256c5.9,0,10.7,4.8,10.7,10.7s-4.8,10.7-10.7,10.7h-256
			C4.8,384,0,379.2,0,373.3z"/>
	</g>
</g>
<g>
	<g>
		<path class="st0" d="M85.3,480c0-5.9,4.8-10.7,10.7-10.7h170.7c5.9,0,10.7,4.8,10.7,10.7c0,5.9-4.8,10.7-10.7,10.7H96
			C90.1,490.7,85.3,485.9,85.3,480z"/>
	</g>
</g>
<g>
	<path class="st0" d="M0,138.7l0-64c0-17.6,14.4-32,32-32h213.3c17.6,0,32,14.4,32,32v64c0,17.6-14.4,32-32,32H32
		C14.4,170.7,0,156.3,0,138.7z M32,64c-5.9,0-10.7,4.8-10.7,10.7v64c0,5.9,4.8,10.7,10.7,10.7h213.3c5.9,0,10.7-4.8,10.7-10.7v-64
		c0-5.9-4.8-10.7-10.7-10.7H32z"/>
</g>
<g>
	<path class="st0" d="M320,106.7c0-5.9,4.8-10.7,10.7-10.7h170.7c5.9,0,10.7,4.8,10.7,10.7s-4.8,10.7-10.7,10.7H330.7
		C324.8,117.3,320,112.6,320,106.7z"/>
</g>
<g>
	<path class="st0" d="M416,202.7c-2.7,0-5.5-1-7.5-3.1l-85.3-85.3c-4.2-4.2-4.2-10.9,0-15.1l85.3-85.3c4.2-4.2,10.9-4.2,15.1,0
		c4.2,4.2,4.2,10.9,0,15.1l-77.8,77.8l77.8,77.8c4.2,4.2,4.2,10.9,0,15.1C421.5,201.6,418.7,202.7,416,202.7L416,202.7z"/>
</g>
</svg>
