<?xml version="1.0" encoding="utf-8"?>
<!-- Generator: Adobe Illustrator 27.0.0, SVG Export Plug-In . SVG Version: 6.00 Build 0)  -->
<svg version="1.1" id="Capa_1" xmlns="http://www.w3.org/2000/svg" xmlns:xlink="http://www.w3.org/1999/xlink" x="0px" y="0px"
	 viewBox="0 0 512 512" style="enable-background:new 0 0 512 512;" xml:space="preserve">
<style type="text/css">
	.st0{fill:#EF4425;}
</style>
<g>
	<g>
		<path class="st0" d="M202,239.3c-4.1,0-7.5,3.4-7.5,7.5v13.8c0,4.1,3.4,7.5,7.5,7.5s7.5-3.4,7.5-7.5v-13.8
			C209.5,242.7,206.1,239.3,202,239.3z"/>
	</g>
</g>
<g>
	<g>
		<path class="st0" d="M238,239.3c-4.1,0-7.5,3.4-7.5,7.5v13.8c0,4.1,3.4,7.5,7.5,7.5s7.5-3.4,7.5-7.5v-13.8
			C245.5,242.7,242.1,239.3,238,239.3z"/>
	</g>
</g>
<g>
	<g>
		<path class="st0" d="M310,239.3c-4.1,0-7.5,3.4-7.5,7.5v13.8c0,4.1,3.4,7.5,7.5,7.5c4.1,0,7.5-3.4,7.5-7.5v-13.8
			C317.5,242.7,314.1,239.3,310,239.3z"/>
	</g>
</g>
<g>
	<g>
		<path class="st0" d="M274,239.3c-4.1,0-7.5,3.4-7.5,7.5v13.8c0,4.1,3.4,7.5,7.5,7.5c4.1,0,7.5-3.4,7.5-7.5v-13.8
			C281.5,242.7,278.1,239.3,274,239.3z"/>
	</g>
</g>
<g>
	<g>
		<path class="st0" d="M456.4,396h-18.8c-4.1,0-7.5,3.4-7.5,7.5s3.4,7.5,7.5,7.5h18.8c4.1,0,7.5-3.4,7.5-7.5S460.5,396,456.4,396z"
			/>
	</g>
</g>
<g>
	<g>
		<path class="st0" d="M456.4,432h-18.8c-4.1,0-7.5,3.4-7.5,7.5s3.4,7.5,7.5,7.5h18.8c4.1,0,7.5-3.4,7.5-7.5S460.5,432,456.4,432z"
			/>
	</g>
</g>
<g>
	<g>
		<path class="st0" d="M75.5,396H56.7c-4.1,0-7.5,3.4-7.5,7.5s3.4,7.5,7.5,7.5h18.8c4.1,0,7.5-3.4,7.5-7.5S79.6,396,75.5,396z"/>
	</g>
</g>
<g>
	<g>
		<path class="st0" d="M75.5,432H56.7c-4.1,0-7.5,3.4-7.5,7.5s3.4,7.5,7.5,7.5h18.8c4.1,0,7.5-3.4,7.5-7.5S79.6,432,75.5,432z"/>
	</g>
</g>
<g>
	<g>
		<path class="st0" d="M220,336.4c-4.1,0-7.5,3.4-7.5,7.5v104.3c0,4.1,3.4,7.5,7.5,7.5s7.5-3.4,7.5-7.5V343.9
			C227.5,339.8,224.1,336.4,220,336.4z"/>
	</g>
</g>
<g>
	<g>
		<path class="st0" d="M184,336.4c-4.1,0-7.5,3.4-7.5,7.5v104.3c0,4.1,3.4,7.5,7.5,7.5s7.5-3.4,7.5-7.5V343.9
			C191.5,339.8,188.1,336.4,184,336.4z"/>
	</g>
</g>
<g>
	<g>
		<path class="st0" d="M148,336.4c-4.1,0-7.5,3.4-7.5,7.5v104.3c0,4.1,3.4,7.5,7.5,7.5s7.5-3.4,7.5-7.5V343.9
			C155.5,339.8,152.1,336.4,148,336.4z"/>
	</g>
</g>
<g>
	<g>
		<path class="st0" d="M364,336.4c-4.1,0-7.5,3.4-7.5,7.5v104.3c0,4.1,3.4,7.5,7.5,7.5c4.1,0,7.5-3.4,7.5-7.5V343.9
			C371.5,339.8,368.1,336.4,364,336.4z"/>
	</g>
</g>
<g>
	<g>
		<path class="st0" d="M328,336.4c-4.1,0-7.5,3.4-7.5,7.5v104.3c0,4.1,3.4,7.5,7.5,7.5c4.1,0,7.5-3.4,7.5-7.5V343.9
			C335.5,339.8,332.1,336.4,328,336.4z"/>
	</g>
</g>
<g>
	<g>
		<path class="st0" d="M292,336.4c-4.1,0-7.5,3.4-7.5,7.5v104.3c0,4.1,3.4,7.5,7.5,7.5c4.1,0,7.5-3.4,7.5-7.5V343.9
			C299.5,339.8,296.1,336.4,292,336.4z"/>
	</g>
</g>
<g>
	<g>
		<path class="st0" d="M256,336.4c-4.1,0-7.5,3.4-7.5,7.5v104.3c0,4.1,3.4,7.5,7.5,7.5c4.1,0,7.5-3.4,7.5-7.5V343.9
			C263.5,339.8,260.1,336.4,256,336.4z"/>
	</g>
</g>
<g>
	<g>
		<path class="st0" d="M491.1,467.5v-91.8c11.7-0.7,20.9-10.4,20.9-22.2c0-12.3-10-22.3-22.3-22.3h-73.9v-9.9
			c11-1.4,19.5-10.8,19.5-22.1c0-12.3-10-22.3-22.3-22.3H360v-46.9c10.6-1.8,18.6-10.9,18.6-22c0-11.1-8.2-20.4-18.9-22
			c-1.3-18.2-7.2-35.7-17.5-50.9c-2.3-3.4-7-4.3-10.4-2c-3.4,2.3-4.3,7-2,10.4c8.5,12.6,13.6,27.1,14.9,42.3H167.3
			c5.7-68.3,83.6-104.5,139.5-65.7c3.4,2.4,8.1,1.5,10.4-1.9s1.5-8.1-1.9-10.4c-15.4-10.7-33.2-17-51.8-18.3V77h46.1
			c10.8,0,19.5-8.7,19.5-19.5V31.4c0-10.8-8.7-19.5-19.5-19.5h-46.1V7.5c0-4.1-3.4-7.5-7.5-7.5c-4.1,0-7.5,3.4-7.5,7.5
			c0,25.2,0,52,0,81.9c-51.5,3.7-92.7,45-96.3,96.5c-10.7,1.6-18.9,10.9-18.9,22c0,11,8.1,20.2,18.6,22v46.9H99
			c-12.3,0-22.3,10-22.3,22.3c0,11.3,8.5,20.7,19.5,22.1v9.9H74.8c-4.1,0-7.5,3.4-7.5,7.5s3.4,7.5,7.5,7.5h21.4v14.6
			c-21.7,0-49.7,0-73.9,0c-4,0-7.3-3.3-7.3-7.3s3.3-7.3,7.3-7.3h17.6c4.1,0,7.5-3.4,7.5-7.5s-3.4-7.5-7.5-7.5H22.3
			C10,331.1,0,341.1,0,353.4c0,11.8,9.3,21.5,20.9,22.2v91.8C9.3,468.2,0,477.9,0,489.7C0,502,10,512,22.3,512h368.5
			c4.1,0,7.5-3.4,7.5-7.5s-3.4-7.5-7.5-7.5H22.3c-4,0-7.3-3.3-7.3-7.3s3.3-7.3,7.3-7.3c161,0,304.4,0,467.4,0c4,0,7.3,3.3,7.3,7.3
			c0,4-3.3,7.3-7.3,7.3h-63.9c-4.1,0-7.5,3.4-7.5,7.5s3.4,7.5,7.5,7.5h63.9c12.3,0,22.3-10,22.3-22.3
			C512,477.9,502.7,468.2,491.1,467.5z M263.5,26.9h46.1c2.4,0,4.5,2.1,4.5,4.5v26.1c0,2.4-2.1,4.5-4.5,4.5h-46.1V26.9z M96.2,467.4
			H35.9v-91.7h60.3V467.4z M148.3,207.9c0-4,3.3-7.3,7.3-7.3c10.5,0,186.3,0,196.9,0h3.8c4,0,7.3,3.3,7.3,7.3c0,4-3.3,7.3-7.3,7.3
			c-10.5,0-186.3,0-196.9,0h-3.8C151.6,215.2,148.3,211.9,148.3,207.9z M345,230.2v46.6H167v-46.6H345z M400.8,467.4H111.2
			c0-15.3,0-129.8,0-146h289.5C400.8,338.4,400.8,450.7,400.8,467.4z M99,306.4c-4,0-7.3-3.3-7.3-7.3s3.3-7.3,7.3-7.3
			c4.6,0,310.9,0,313.9,0c4,0,7.3,3.3,7.3,7.3c0,4-3.3,7.3-7.3,7.3C398.1,306.4,113.9,306.4,99,306.4z M476.1,467.4h-60.3v-91.7
			h60.3V467.4z M415.8,360.7v-14.6h73.9c4,0,7.3,3.3,7.3,7.3s-3.3,7.3-7.3,7.3C465.5,360.7,437.5,360.7,415.8,360.7z"/>
	</g>
</g>
</svg>
