<svg width="24" height="24" viewBox="0 0 24 24" fill="none" xmlns="http://www.w3.org/2000/svg">
<path d="M19.6612 21.5363H4.33874C3.79174 21.5363 3.26713 21.319 2.88034 20.9322C2.49354 20.5454 2.27625 20.0208 2.27625 19.4738V8.28751C2.27774 7.90241 2.38663 7.52537 2.59067 7.19878C2.79471 6.87218 3.08581 6.60898 3.43124 6.43876L11.0925 2.68876C11.3754 2.55169 11.6856 2.48048 12 2.48048C12.3143 2.48048 12.6246 2.55169 12.9075 2.68876L20.5687 6.43876C20.9142 6.60898 21.2053 6.87218 21.4093 7.19878C21.6134 7.52537 21.7222 7.90241 21.7237 8.28751V19.4738C21.7237 20.0208 21.5064 20.5454 21.1197 20.9322C20.7329 21.319 20.2083 21.5363 19.6612 21.5363ZM12 3.58876C11.8571 3.58763 11.7159 3.61973 11.5875 3.68251L3.92625 7.43251C3.76958 7.51023 3.63755 7.6299 3.54486 7.77821C3.45217 7.92651 3.40246 8.09762 3.40124 8.27251V19.4738C3.40124 19.7224 3.50002 19.9609 3.67583 20.1367C3.85165 20.3125 4.0901 20.4113 4.33874 20.4113H19.6612C19.9099 20.4113 20.1483 20.3125 20.3242 20.1367C20.5 19.9609 20.5987 19.7224 20.5987 19.4738V8.28751C20.5975 8.11262 20.5478 7.94151 20.4551 7.79321C20.3624 7.6449 20.2304 7.52523 20.0737 7.44751L12.4125 3.68251C12.2841 3.61973 12.1429 3.58763 12 3.58876V3.58876Z" fill="#FF3E16"/>
<path d="M12 12.3375C11.9333 12.3367 11.8673 12.324 11.805 12.3L6.78004 10.425C6.70538 10.4036 6.63595 10.367 6.57613 10.3175C6.51631 10.268 6.46739 10.2066 6.43245 10.1373C6.39752 10.0679 6.37732 9.99208 6.37313 9.91454C6.36895 9.83699 6.38086 9.75942 6.40813 9.68671C6.4354 9.614 6.47742 9.54772 6.53157 9.49205C6.58571 9.43637 6.65079 9.39252 6.72272 9.36324C6.79464 9.33395 6.87185 9.31988 6.94948 9.32191C7.02712 9.32393 7.10349 9.34201 7.17379 9.375L12 11.175L16.8263 9.375C16.9655 9.32494 17.1189 9.33177 17.2531 9.39399C17.3874 9.45622 17.4917 9.56883 17.5435 9.70744C17.5953 9.84605 17.5904 9.99949 17.5298 10.1345C17.4693 10.2695 17.358 10.3752 17.22 10.4288L12.195 12.3038C12.1325 12.3264 12.0665 12.3379 12 12.3375V12.3375Z" fill="black"/>
</svg>
