<?xml version="1.0" encoding="utf-8"?>
<!-- Generator: Adobe Illustrator 27.0.0, SVG Export Plug-In . SVG Version: 6.00 Build 0)  -->
<svg version="1.1" id="svg879" xmlns:svg="http://www.w3.org/2000/svg"
	 xmlns="http://www.w3.org/2000/svg" xmlns:xlink="http://www.w3.org/1999/xlink" x="0px" y="0px" viewBox="0 0 682.7 682.7"
	 style="enable-background:new 0 0 682.7 682.7;" xml:space="preserve">
<style type="text/css">
	.st0{fill:none;stroke:#EF4425;stroke-width:53.3333;stroke-linecap:round;stroke-linejoin:round;stroke-miterlimit:13.3333;}
	.st1{fill:#EF4425;}
</style>
<g id="g895" transform="translate(256,492)">
	<path id="path897" class="st0" d="M85.3-465.3c-173.8,0-314.7,140.9-314.7,314.7c0,61.2,17.5,118.3,47.7,166.6L-229.3,164
		l148.1-47.7C-32.9,146.5,24.2,164,85.3,164C259.1,164,400,23.1,400-150.7S259.1-465.3,85.3-465.3z"/>
</g>
<g id="g899" transform="translate(281,256)">
	<path id="path901_00000129177987347804388590000012550694070666628487_" class="st1" d="M93.7,85.3c0,18.4-14.9,33.3-33.3,33.3
		S27,103.7,27,85.3S41.9,52,60.3,52S93.7,66.9,93.7,85.3"/>
</g>
<g id="g903" transform="translate(381,256)">
	<path id="path905_00000013193138924875202920000016425624700926890675_" class="st1" d="M70.8,61.1c13.4-12.6,34.5-12,47.1,1.3
		s12,34.5-1.3,47.1s-34.5,12-47.1-1.3S57.4,73.7,70.8,61.1"/>
</g>
<g id="g907" transform="translate(181,256)">
	<path id="path909_00000027576627758230040450000000735514889638337712_" class="st1" d="M60.3,85.3c0,18.4-14.9,33.3-33.3,33.3
		S-6.3,103.7-6.3,85.3S8.6,52,27,52S60.3,66.9,60.3,85.3"/>
</g>
</svg>
